<?xml version="1.0" encoding="UTF-8"?> <svg xmlns="http://www.w3.org/2000/svg" xmlns:xlink="http://www.w3.org/1999/xlink" version="1.1" id="Layer_1" x="0px" y="0px" viewBox="0 0 526.2 411.2" style="enable-background:new 0 0 526.2 411.2;" xml:space="preserve"> <style type="text/css"> .st0{opacity:0.5;} .st1{fill:#FE5F00;} .st2{enable-background:new ;} .st3{fill:#C18C4D;} .st4{fill:#EFC49A;} .st5{fill:#9B6B2C;} .st6{fill:#D3A479;} .st7{fill:#775124;} .st8{opacity:0.26;fill:url(#SVGID_1_);} .st9{fill:#EFAE52;} .st10{fill:#FFD097;} .st11{fill:#D3993C;} .st12{opacity:0.67;} .st13{fill:#FFFFFF;} .st14{opacity:0.5;fill:#FFFFFF;} .st15{fill:#AA7322;} .st16{fill:url(#SVGID_00000100353909956145947100000001514449162238068630_);} .st17{fill:url(#SVGID_00000142890434056124499260000015994163521927254702_);} .st18{fill:url(#SVGID_00000112592163978931267600000014336369046892253119_);} .st19{fill:url(#SVGID_00000043441557728234503620000009189365033952743600_);} .st20{fill:url(#SVGID_00000083069674770113886280000003180015164409628295_);} .st21{fill:url(#SVGID_00000174564268561092466550000009840858075914713770_);} .st22{fill:url(#SVGID_00000038376343062995451040000017734667218724806577_);} .st23{fill:url(#SVGID_00000054237851642685765190000007229256568377657781_);} .st24{fill:url(#SVGID_00000133517619364047074670000017024006283679657886_);} .st25{fill:url(#SVGID_00000160152964927791442660000005467639205973164947_);} .st26{fill:url(#SVGID_00000011751872410431166420000007031614433594793139_);} .st27{fill:url(#SVGID_00000092425555701855900670000016683486360076627356_);} .st28{fill:none;stroke:#A2A3A2;stroke-width:9;stroke-miterlimit:10;} .st29{fill:none;stroke:#C6C6C6;stroke-width:9;stroke-miterlimit:10;} .st30{fill:url(#SVGID_00000142156311663047893320000012838569478173668013_);} .st31{fill:url(#SVGID_00000042710298463358622860000000905309431559686796_);} .st32{fill:url(#SVGID_00000032619385723620935040000006879642033323665537_);} .st33{fill:url(#SVGID_00000035514721414183780810000000284883620170828726_);} .st34{fill:url(#SVGID_00000087376075788356369010000000180276370417547936_);} .st35{fill:url(#SVGID_00000025408187773047893950000017516509928497739168_);} .st36{fill:#C7C9C7;} .st37{fill:url(#SVGID_00000094607218258991468810000000238937518199996550_);} .st38{fill:url(#SVGID_00000155126176023815117620000017611222769350920621_);} .st39{fill:url(#SVGID_00000044885978213282160920000007093242040321894821_);} .st40{fill:url(#SVGID_00000114043125502405368530000007491197272800456117_);} .st41{fill:url(#SVGID_00000009555262506717580890000014731321112693525665_);} .st42{fill:url(#SVGID_00000164487690601250795680000011931570832043496115_);} .st43{fill:url(#SVGID_00000021797668222673138060000001390143994925974407_);} .st44{fill:url(#SVGID_00000085971220437167203260000006259100184753650561_);} .st45{fill:url(#SVGID_00000171716490459948032610000002591787460064197250_);} .st46{fill:url(#SVGID_00000083056997037500848090000014839538309009893256_);} .st47{fill:url(#SVGID_00000070807725336723037580000001515321480429061287_);} .st48{fill:url(#SVGID_00000097479433640029880760000002499719560579076224_);} .st49{fill:url(#SVGID_00000042731280197980785740000004992608487184420997_);} .st50{fill:url(#SVGID_00000133515542492561567650000009430692589500188082_);} .st51{fill:url(#SVGID_00000052082825600815318830000018433540948173567669_);} .st52{fill:url(#SVGID_00000077315328946318115030000013115088747038986624_);} .st53{fill:#EFB705;} .st54{fill:#FEDB02;} .st55{fill:#FEC600;} </style> <g> <g class="st0"> <g> <circle class="st1" cx="13.6" cy="48.7" r="3.5"></circle> <circle class="st1" cx="36.1" cy="48.7" r="3.5"></circle> <circle class="st1" cx="58.6" cy="48.7" r="3.5"></circle> <circle class="st1" cx="81" cy="48.7" r="3.5"></circle> <circle class="st1" cx="103.5" cy="48.7" r="3.5"></circle> <circle class="st1" cx="125.9" cy="48.7" r="3.5"></circle> <circle class="st1" cx="148.4" cy="48.7" r="3.5"></circle> <circle class="st1" cx="170.8" cy="48.7" r="3.5"></circle> <circle class="st1" cx="193.3" cy="48.7" r="3.5"></circle> <circle class="st1" cx="215.7" cy="48.7" r="3.5"></circle> <circle class="st1" cx="238.2" cy="48.7" r="3.5"></circle> </g> </g> <g class="st0"> <g> <circle class="st1" cx="13.6" cy="135.6" r="3.5"></circle> <circle class="st1" cx="36.1" cy="135.6" r="3.5"></circle> <circle class="st1" cx="58.6" cy="135.6" r="3.5"></circle> <circle class="st1" cx="81" cy="135.6" r="3.5"></circle> <circle class="st1" cx="103.5" cy="135.6" r="3.5"></circle> <circle class="st1" cx="125.9" cy="135.6" r="3.5"></circle> <circle class="st1" cx="148.4" cy="135.6" r="3.5"></circle> <circle class="st1" cx="170.8" cy="135.6" r="3.5"></circle> <circle class="st1" cx="193.3" cy="135.6" r="3.5"></circle> <circle class="st1" cx="215.7" cy="135.6" r="3.5"></circle> <circle class="st1" cx="238.2" cy="135.6" r="3.5"></circle> </g> </g> <g class="st0"> <g> <circle class="st1" cx="13.6" cy="113.9" r="3.5"></circle> <circle class="st1" cx="36.1" cy="113.9" r="3.5"></circle> <circle class="st1" cx="58.6" cy="113.9" r="3.5"></circle> <circle class="st1" cx="81" cy="113.9" r="3.5"></circle> <circle class="st1" cx="103.5" cy="113.9" r="3.5"></circle> <circle class="st1" cx="125.9" cy="113.9" r="3.5"></circle> <circle class="st1" cx="148.4" cy="113.9" r="3.5"></circle> <circle class="st1" cx="170.8" cy="113.9" r="3.5"></circle> <circle class="st1" cx="193.3" cy="113.9" r="3.5"></circle> <circle class="st1" cx="215.7" cy="113.9" r="3.5"></circle> <circle class="st1" cx="238.2" cy="113.9" r="3.5"></circle> </g> </g> <g class="st0"> <g> <circle class="st1" cx="13.6" cy="92.2" r="3.5"></circle> <circle class="st1" cx="36.1" cy="92.2" r="3.5"></circle> <circle class="st1" cx="58.6" cy="92.2" r="3.5"></circle> <circle class="st1" cx="81" cy="92.2" r="3.5"></circle> <circle class="st1" cx="103.5" cy="92.2" r="3.5"></circle> <circle class="st1" cx="125.9" cy="92.2" r="3.5"></circle> <circle class="st1" cx="148.4" cy="92.2" r="3.5"></circle> <circle class="st1" cx="170.8" cy="92.2" r="3.5"></circle> <circle class="st1" cx="193.3" cy="92.2" r="3.5"></circle> <circle class="st1" cx="215.7" cy="92.2" r="3.5"></circle> <circle class="st1" cx="238.2" cy="92.2" r="3.5"></circle> </g> </g> <g class="st0"> <g> <circle class="st1" cx="13.6" cy="157.3" r="3.5"></circle> <circle class="st1" cx="36.1" cy="157.3" r="3.5"></circle> <circle class="st1" cx="58.6" cy="157.3" r="3.5"></circle> <circle class="st1" cx="81" cy="157.3" r="3.5"></circle> <circle class="st1" cx="103.5" cy="157.3" r="3.5"></circle> <circle class="st1" cx="125.9" cy="157.3" r="3.5"></circle> <circle class="st1" cx="148.4" cy="157.3" r="3.5"></circle> <circle class="st1" cx="170.8" cy="157.3" r="3.5"></circle> <circle class="st1" cx="193.3" cy="157.3" r="3.5"></circle> <circle class="st1" cx="215.7" cy="157.3" r="3.5"></circle> <circle class="st1" cx="238.2" cy="157.3" r="3.5"></circle> </g> </g> <g class="st0"> <g> <circle class="st1" cx="13.6" cy="70.4" r="3.5"></circle> <circle class="st1" cx="36.1" cy="70.4" r="3.5"></circle> <circle class="st1" cx="58.6" cy="70.4" r="3.5"></circle> <circle class="st1" cx="81" cy="70.4" r="3.5"></circle> <circle class="st1" cx="103.5" cy="70.4" r="3.5"></circle> <circle class="st1" cx="125.9" cy="70.4" r="3.5"></circle> <circle class="st1" cx="148.4" cy="70.4" r="3.5"></circle> <circle class="st1" cx="170.8" cy="70.4" r="3.5"></circle> <circle class="st1" cx="193.3" cy="70.4" r="3.5"></circle> <circle class="st1" cx="215.7" cy="70.4" r="3.5"></circle> <circle class="st1" cx="238.2" cy="70.4" r="3.5"></circle> </g> </g> </g> <g> <g> <g> <g> <g> <g class="st2"> <g> <polygon class="st3" points="368.3,274.2 389.5,261.7 389.5,256.2 368.4,268.7 "></polygon> </g> <g> <polygon class="st4" points="368.4,268.7 389.5,256.2 226.3,161.4 205.2,173.9 "></polygon> </g> <g> <polygon class="st5" points="205.2,173.9 205.1,179.4 368.3,274.2 368.4,268.7 "></polygon> </g> </g> </g> <g> <g class="st2"> <g> <polygon class="st3" points="496.6,201 517.7,188.5 517.8,183 496.6,195.5 "></polygon> </g> <g> <polygon class="st4" points="496.6,195.5 517.8,183 354.6,88.2 333.4,100.7 "></polygon> </g> <g> <polygon class="st5" points="333.4,100.7 333.4,106.2 496.6,201 496.6,195.5 "></polygon> </g> </g> </g> <g> <g class="st2"> <g> <polygon class="st3" points="368.5,269.7 356.7,262.7 356.7,236.7 368.5,243.8 "></polygon> </g> <g> <polygon class="st6" points="368.5,243.8 356.7,236.7 505.9,150.4 517.8,157.4 "></polygon> </g> <g> <polygon class="st7" points="517.8,157.4 517.8,183.4 368.5,269.7 368.5,243.8 "></polygon> </g> </g> </g> <g> <g class="st2"> <g> <polygon class="st3" points="292.8,225.5 280.9,218.4 280.9,192.4 292.8,199.5 "></polygon> </g> <g> <polygon class="st6" points="292.8,199.5 280.9,192.4 430.1,106.1 442,113.1 "></polygon> </g> <g> <polygon class="st7" points="442,113.1 442,139.1 292.8,225.5 292.8,199.5 "></polygon> </g> </g> </g> <g> <g class="st2"> <g> <polygon class="st3" points="217,181.2 205.2,174.1 205.1,148.2 217,155.2 "></polygon> </g> <g> <polygon class="st6" points="217,155.2 205.1,148.2 354.4,61.8 366.3,68.9 "></polygon> </g> <g> <polygon class="st7" points="366.3,68.9 366.3,94.8 217,181.2 217,155.2 "></polygon> </g> </g> </g> <g> <g class="st2"> <g> <polygon class="st3" points="368.3,243.8 389.5,231.2 389.5,225.8 368.4,238.3 "></polygon> </g> <g> <polygon class="st4" points="368.4,238.3 389.5,225.8 226.3,131 205.2,143.5 "></polygon> </g> <g> <polygon class="st5" points="205.2,143.5 205.1,149 368.3,243.8 368.4,238.3 "></polygon> </g> </g> </g> <g> <g class="st2"> <g> <polygon class="st3" points="400.9,225.5 422.1,212.9 422.1,207.5 401,220 "></polygon> </g> <g> <polygon class="st4" points="401,220 422.1,207.5 258.9,112.7 237.8,125.2 "></polygon> </g> <g> <polygon class="st5" points="237.8,125.2 237.7,130.7 400.9,225.5 401,220 "></polygon> </g> </g> </g> <g> <g class="st2"> <g> <polygon class="st3" points="433.5,207.2 454.6,194.6 454.7,189.2 433.5,201.7 "></polygon> </g> <g> <polygon class="st4" points="433.5,201.7 454.7,189.2 291.5,94.4 270.3,106.9 "></polygon> </g> <g> <polygon class="st5" points="270.3,106.9 270.3,112.4 433.5,207.2 433.5,201.7 "></polygon> </g> </g> </g> <g> <g class="st2"> <g> <polygon class="st3" points="464,188.9 485.1,176.3 485.2,170.9 464,183.4 "></polygon> </g> <g> <polygon class="st4" points="464,183.4 485.2,170.9 322,76.1 300.8,88.6 "></polygon> </g> <g> <polygon class="st5" points="300.8,88.6 300.8,94.1 464,188.9 464,183.4 "></polygon> </g> </g> </g> <g> <g class="st2"> <g> <polygon class="st3" points="496.6,170.6 517.7,158 517.8,152.5 496.6,165.1 "></polygon> </g> <g> <polygon class="st4" points="496.6,165.1 517.8,152.5 354.6,57.8 333.4,70.3 "></polygon> </g> <g> <polygon class="st5" points="333.4,70.3 333.4,75.8 496.6,170.6 496.6,165.1 "></polygon> </g> </g> </g> </g> <g> <linearGradient id="SVGID_1_" gradientUnits="userSpaceOnUse" x1="13208.8457" y1="180.3177" x2="13435.8281" y2="180.3177" gradientTransform="matrix(-1 0 0 1 13673.543 0)"> <stop offset="0" style="stop-color:#303030"></stop> <stop offset="1" style="stop-color:#231A1A"></stop> </linearGradient> <polygon class="st8" points="460.4,153.7 296.5,134 237.7,164.9 343.1,226.6 464.7,156.2 "></polygon> <g> <g> <g> <g class="st2"> <g> <polygon class="st9" points="368.7,152.5 412,126.7 412,81.4 368.7,107.2 "></polygon> </g> <g> <polygon class="st10" points="368.7,107.2 412,81.4 367.7,56.1 324.4,81.9 "></polygon> </g> <g> <polygon class="st11" points="324.4,81.9 324.4,127.2 368.7,152.5 368.7,107.2 "></polygon> </g> </g> </g> <g class="st12"> <polygon class="st13" points="385.9,97.2 394.8,91.8 350.5,66.5 341.6,71.9 "></polygon> </g> <polygon class="st14" points="394.8,105.1 385.9,110.4 385.9,97.2 394.8,91.8 "></polygon> <g> <polygon class="st14" points="326.5,99.7 335.5,105.1 335.5,91.8 326.5,86.5 "></polygon> <g> <path class="st13" d="M328,91.8l6,3.5c0.2,0.1,0.4,0.1,0.4-0.2l0,0c0-0.2-0.2-0.5-0.4-0.6l-6-3.5c-0.2-0.1-0.4-0.1-0.4,0.2 v0C327.6,91.4,327.8,91.6,328,91.8z"></path> <path class="st13" d="M328,94.4l6,3.5c0.2,0.1,0.4,0.1,0.4-0.2l0,0c0-0.2-0.2-0.5-0.4-0.6l-6-3.5c-0.2-0.1-0.4-0.1-0.4,0.2 l0,0C327.6,94,327.8,94.3,328,94.4z"></path> <path class="st13" d="M328,97l6,3.5c0.2,0.1,0.4,0.1,0.4-0.2l0,0c0-0.2-0.2-0.5-0.4-0.6l-6-3.5c-0.2-0.1-0.4-0.1-0.4,0.2 l0,0C327.6,96.6,327.8,96.9,328,97z"></path> </g> </g> </g> <g> <g> <g class="st2"> <g> <polygon class="st15" points="413.5,178.3 456.8,152.5 456.8,107.2 413.5,133 "></polygon> </g> <g> <polygon class="st10" points="413.5,133 456.8,107.2 412.5,81.9 369.2,107.7 "></polygon> </g> <g> <polygon class="st11" points="369.2,107.7 369.2,153 413.5,178.3 413.5,133 "></polygon> </g> </g> </g> <g class="st12"> <polygon class="st13" points="430.6,123 439.6,117.7 395.3,92.4 386.3,97.7 "></polygon> </g> <polygon class="st14" points="439.6,130.9 430.6,136.3 430.6,123 439.6,117.7 "></polygon> <g> <polygon class="st14" points="371.3,125.6 380.3,130.9 380.3,117.7 371.3,112.3 "></polygon> <g> <path class="st13" d="M372.8,117.6l6,3.5c0.2,0.1,0.4,0.1,0.4-0.2l0,0c0-0.2-0.2-0.5-0.4-0.6l-6-3.5 c-0.2-0.1-0.4-0.1-0.4,0.2l0,0C372.4,117.2,372.6,117.5,372.8,117.6z"></path> <path class="st13" d="M372.8,120.2l6,3.5c0.2,0.1,0.4,0.1,0.4-0.2l0,0c0-0.2-0.2-0.5-0.4-0.6l-6-3.5 c-0.2-0.1-0.4-0.1-0.4,0.2l0,0C372.4,119.8,372.6,120.1,372.8,120.2z"></path> <path class="st13" d="M372.8,122.9l6,3.5c0.2,0.1,0.4,0.1,0.4-0.2l0,0c0-0.2-0.2-0.5-0.4-0.6l-6-3.5 c-0.2-0.1-0.4-0.1-0.4,0.2l0,0C372.4,122.5,372.6,122.8,372.8,122.9z"></path> </g> </g> </g> <g> <g> <g class="st2"> <g> <polygon class="st9" points="324.6,178.8 368,153 368,107.7 324.6,133.5 "></polygon> </g> <g> <polygon class="st10" points="324.6,133.5 368,107.7 323.7,82.4 280.3,108.2 "></polygon> </g> <g> <polygon class="st11" points="280.3,108.2 280.3,153.5 324.6,178.8 324.6,133.5 "></polygon> </g> </g> </g> <g class="st12"> <polygon class="st13" points="341.8,123.5 350.8,118.2 306.5,92.8 297.5,98.2 "></polygon> </g> <polygon class="st14" points="350.8,131.4 341.8,136.7 341.8,123.5 350.8,118.2 "></polygon> <g> <polygon class="st14" points="282.5,126 291.5,131.4 291.5,118.2 282.5,112.8 "></polygon> <g> <path class="st13" d="M284,118.1l6,3.5c0.2,0.1,0.4,0.1,0.4-0.2l0,0c0-0.2-0.2-0.5-0.4-0.6l-6-3.5c-0.2-0.1-0.4-0.1-0.4,0.2 l0,0C283.6,117.7,283.8,117.9,284,118.1z"></path> <path class="st13" d="M284,120.7l6,3.5c0.2,0.1,0.4,0.1,0.4-0.2l0,0c0-0.2-0.2-0.5-0.4-0.6l-6-3.5c-0.2-0.1-0.4-0.1-0.4,0.2 l0,0C283.6,120.3,283.8,120.6,284,120.7z"></path> <path class="st13" d="M284,123.4l6,3.5c0.2,0.1,0.4,0.1,0.4-0.2l0,0c0-0.2-0.2-0.5-0.4-0.6l-6-3.5c-0.2-0.1-0.4-0.1-0.4,0.2 l0,0C283.6,123,283.8,123.2,284,123.4z"></path> </g> </g> </g> <g> <g> <g class="st2"> <g> <polygon class="st15" points="368.7,106.6 412,80.8 412,35.5 368.7,61.3 "></polygon> </g> <g> <polygon class="st10" points="368.7,61.3 412,35.5 367.7,10.1 324.4,35.9 "></polygon> </g> <g> <polygon class="st11" points="324.4,35.9 324.4,81.3 368.7,106.6 368.7,61.3 "></polygon> </g> </g> </g> <g class="st12"> <polygon class="st13" points="385.9,51.3 394.8,45.9 350.5,20.6 341.6,26 "></polygon> </g> <polygon class="st14" points="394.8,59.2 385.9,64.5 385.9,51.3 394.8,45.9 "></polygon> <g> <polygon class="st14" points="326.5,53.8 335.5,59.2 335.5,45.9 326.5,40.6 "></polygon> <g> <path class="st13" d="M328,45.8l6,3.5c0.2,0.1,0.4,0.1,0.4-0.2l0,0c0-0.2-0.2-0.5-0.4-0.6l-6-3.5c-0.2-0.1-0.4-0.1-0.4,0.2 l0,0C327.6,45.4,327.8,45.7,328,45.8z"></path> <path class="st13" d="M328,48.5l6,3.5c0.2,0.1,0.4,0.1,0.4-0.2l0,0c0-0.2-0.2-0.5-0.4-0.6l-6-3.5c-0.2-0.1-0.4-0.1-0.4,0.2 l0,0C327.6,48.1,327.8,48.4,328,48.5z"></path> <path class="st13" d="M328,51.1l6,3.5c0.2,0.1,0.4,0.1,0.4-0.2l0,0c0-0.2-0.2-0.5-0.4-0.6l-6-3.5c-0.2-0.1-0.4-0.1-0.4,0.2 l0,0C327.6,50.7,327.8,51,328,51.1z"></path> </g> </g> </g> <g> <g> <g class="st2"> <g> <polygon class="st15" points="324.6,132.9 368,107.1 368,61.8 324.6,87.6 "></polygon> </g> <g> <polygon class="st10" points="324.6,87.6 368,61.8 323.7,36.4 280.3,62.3 "></polygon> </g> <g> <polygon class="st11" points="280.3,62.3 280.3,107.6 324.6,132.9 324.6,87.6 "></polygon> </g> </g> </g> <g class="st12"> <polygon class="st13" points="341.8,77.6 350.8,72.2 306.5,46.9 297.5,52.3 "></polygon> </g> <polygon class="st14" points="350.8,85.5 341.8,90.8 341.8,77.6 350.8,72.2 "></polygon> <g> <polygon class="st14" points="282.5,80.1 291.5,85.5 291.5,72.2 282.5,66.9 "></polygon> <g> <path class="st13" d="M284,72.2l6,3.5c0.2,0.1,0.4,0.1,0.4-0.2l0,0c0-0.2-0.2-0.5-0.4-0.6l-6-3.5c-0.2-0.1-0.4-0.1-0.4,0.2 l0,0C283.6,71.8,283.8,72,284,72.2z"></path> <path class="st13" d="M284,74.8l6,3.5c0.2,0.1,0.4,0.1,0.4-0.2l0,0c0-0.2-0.2-0.5-0.4-0.6l-6-3.5c-0.2-0.1-0.4-0.1-0.4,0.2 l0,0C283.6,74.4,283.8,74.7,284,74.8z"></path> <path class="st13" d="M284,77.4l6,3.5c0.2,0.1,0.4,0.1,0.4-0.2l0,0c0-0.2-0.2-0.5-0.4-0.6l-6-3.5c-0.2-0.1-0.4-0.1-0.4,0.2 l0,0C283.6,77,283.8,77.3,284,77.4z"></path> </g> </g> </g> <g> <g> <g class="st2"> <g> <polygon class="st15" points="369.4,204.7 412.7,178.9 412.7,133.5 369.4,159.3 "></polygon> </g> <g> <polygon class="st10" points="369.4,159.3 412.7,133.5 368.4,108.2 325.1,134 "></polygon> </g> <g> <polygon class="st11" points="325.1,134 325.1,179.3 369.4,204.7 369.4,159.3 "></polygon> </g> </g> </g> <g class="st12"> <polygon class="st13" points="386.6,149.3 395.6,144 351.3,118.7 342.3,124 "></polygon> </g> <polygon class="st14" points="395.6,157.2 386.6,162.6 386.6,149.3 395.6,144 "></polygon> <g> <polygon class="st14" points="327.3,151.9 336.2,157.2 336.2,144 327.3,138.6 "></polygon> <g> <path class="st13" d="M328.7,143.9l6,3.5c0.2,0.1,0.4,0.1,0.4-0.2l0,0c0-0.2-0.2-0.5-0.4-0.6l-6-3.5 c-0.2-0.1-0.4-0.1-0.4,0.2l0,0C328.4,143.5,328.5,143.8,328.7,143.9z"></path> <path class="st13" d="M328.7,146.6l6,3.5c0.2,0.1,0.4,0.1,0.4-0.2l0,0c0-0.2-0.2-0.5-0.4-0.6l-6-3.5 c-0.2-0.1-0.4-0.1-0.4,0.2v0C328.4,146.2,328.5,146.4,328.7,146.6z"></path> <path class="st13" d="M328.7,149.2l6,3.5c0.2,0.1,0.4,0.1,0.4-0.2l0,0c0-0.2-0.2-0.5-0.4-0.6l-6-3.5 c-0.2-0.1-0.4-0.1-0.4,0.2l0,0C328.4,148.8,328.5,149.1,328.7,149.2z"></path> </g> </g> </g> <g> <g> <g class="st2"> <g> <polygon class="st15" points="383.4,151.2 426.7,125.4 426.7,80 383.4,105.8 "></polygon> </g> <g> <polygon class="st10" points="383.4,105.8 426.7,80 382.4,54.7 339.1,80.5 "></polygon> </g> <g> <polygon class="st11" points="339.1,80.5 339.1,125.8 383.4,151.2 383.4,105.8 "></polygon> </g> </g> </g> <g class="st12"> <polygon class="st13" points="400.5,95.9 409.5,90.5 365.2,65.2 356.2,70.5 "></polygon> </g> <polygon class="st14" points="409.5,103.7 400.5,109.1 400.5,95.9 409.5,90.5 "></polygon> <g> <polygon class="st14" points="341.2,98.4 350.2,103.7 350.2,90.5 341.2,85.2 "></polygon> <g> <path class="st13" d="M342.7,90.4l6,3.5c0.2,0.1,0.4,0.1,0.4-0.2l0,0c0-0.2-0.2-0.5-0.4-0.6l-6-3.5 c-0.2-0.1-0.4-0.1-0.4,0.2l0,0C342.3,90,342.5,90.3,342.7,90.4z"></path> <path class="st13" d="M342.7,93.1l6,3.5c0.2,0.1,0.4,0.1,0.4-0.2l0,0c0-0.2-0.2-0.5-0.4-0.6l-6-3.5 c-0.2-0.1-0.4-0.1-0.4,0.2l0,0C342.3,92.7,342.5,92.9,342.7,93.1z"></path> <path class="st13" d="M342.7,95.7l6,3.5c0.2,0.1,0.4,0.1,0.4-0.2l0,0c0-0.2-0.2-0.5-0.4-0.6l-6-3.5 c-0.2-0.1-0.4-0.1-0.4,0.2l0,0C342.3,95.3,342.5,95.6,342.7,95.7z"></path> </g> </g> </g> </g> </g> </g> <g> <g> <g> <linearGradient id="SVGID_00000059273067368280856570000001746117438253142163_" gradientUnits="userSpaceOnUse" x1="258.6109" y1="300.4535" x2="275.0725" y2="300.4535"> <stop offset="0" style="stop-color:#303030"></stop> <stop offset="1" style="stop-color:#727272"></stop> </linearGradient> <path style="fill:url(#SVGID_00000059273067368280856570000001746117438253142163_);" d="M275.1,293.2 C275.1,293.2,275,293.2,275.1,293.2C275,293.1,275,293.1,275.1,293.2c-0.2-0.1-0.3-0.1-0.4-0.2c0,0-0.1,0-0.1,0 c-0.1,0-0.1,0-0.2-0.1c0,0-0.1,0-0.1,0c0,0,0,0,0,0c0,0,0,0,0,0c0,0,0,0-0.1,0c0,0,0,0,0,0c-0.1,0-0.1,0-0.2,0 c-0.1,0-0.1,0-0.2,0c0,0,0,0-0.1,0c-0.1,0-0.2,0-0.3,0c0,0-0.1,0-0.1,0c-0.1,0-0.3,0-0.4,0c-0.1,0-0.2,0-0.3,0 c-0.1,0-0.2,0-0.3,0c-0.1,0-0.1,0-0.2,0c-0.1,0-0.2,0-0.3,0.1c0,0-0.1,0-0.1,0c0,0,0,0,0,0c-0.1,0-0.1,0-0.2,0.1h0 c0,0,0,0-0.1,0c0,0-0.1,0-0.1,0c0,0-0.1,0-0.1,0c-0.1,0-0.1,0-0.2,0.1c-0.1,0-0.1,0-0.2,0.1c-0.1,0-0.2,0.1-0.3,0.1 c-0.1,0-0.1,0.1-0.2,0.1c0,0-0.1,0-0.1,0.1c-0.1,0-0.1,0.1-0.2,0.1c-0.1,0-0.2,0.1-0.3,0.1c-0.1,0.1-0.2,0.1-0.3,0.2 c-0.1,0.1-0.2,0.1-0.3,0.2c-0.1,0.1-0.1,0.1-0.2,0.2c-0.2,0.1-0.3,0.2-0.5,0.3c-0.1,0.1-0.2,0.1-0.2,0.2 c-0.1,0.1-0.3,0.2-0.4,0.4c-0.1,0.1-0.2,0.1-0.2,0.2c-0.1,0.1-0.2,0.2-0.3,0.3c-0.2,0.2-0.3,0.3-0.5,0.5 c-0.1,0.1-0.2,0.2-0.3,0.3c-0.1,0.1-0.2,0.2-0.3,0.3c-0.1,0.1-0.2,0.3-0.3,0.4c-0.1,0.1-0.1,0.2-0.2,0.3 c-0.1,0.2-0.2,0.3-0.4,0.5c0,0.1-0.1,0.1-0.1,0.2c-0.1,0.1-0.2,0.2-0.2,0.4c-0.1,0.1-0.2,0.3-0.2,0.4c0,0,0,0.1-0.1,0.1 c-0.1,0.2-0.2,0.4-0.4,0.6c0,0.1-0.1,0.1-0.1,0.2c-0.1,0.2-0.2,0.5-0.3,0.7c0,0,0,0.1,0,0.1c-0.1,0.1-0.1,0.3-0.2,0.4 s-0.1,0.3-0.2,0.4c0,0.1-0.1,0.2-0.1,0.2c-0.1,0.2-0.1,0.4-0.2,0.6c0,0.1-0.1,0.2-0.1,0.3c0,0.2-0.1,0.3-0.1,0.5 c0,0.1-0.1,0.2-0.1,0.4c0,0.1,0,0.2-0.1,0.3c0,0,0,0.1,0,0.1c0,0.1,0,0.2-0.1,0.3c0,0,0,0.1,0,0.1c0,0.2-0.1,0.4-0.1,0.6 c0,0.1,0,0.2,0,0.3c0,0.1,0,0.2,0,0.2c0,0.1,0,0.2,0,0.3c0,0.1,0,0.2,0,0.2c0,0.1,0,0.2,0,0.2c0,0.1,0,0.1,0,0.2c0,0,0,0,0,0.1 c0,0.1,0,0.1,0,0.2c0,0.1,0,0.2,0,0.3c0,0.1,0,0.2,0,0.2c0,0.1,0,0.2,0,0.2c0,0,0,0,0,0.1c0,0.1,0,0.1,0,0.2 c0,0.1,0,0.2,0.1,0.2c0,0,0,0,0,0c0,0.1,0,0.2,0.1,0.2c0,0.1,0,0.1,0,0.2c0,0,0,0.1,0,0.1c0,0,0,0,0,0.1c0,0,0,0.1,0,0.1 c0.1,0.2,0.2,0.4,0.3,0.6c0,0,0,0.1,0.1,0.1c0,0,0,0,0,0c0,0.1,0.1,0.1,0.1,0.2c0,0,0,0.1,0.1,0.1c0,0,0,0,0,0 c0,0.1,0.1,0.1,0.1,0.2c0,0,0.1,0.1,0.1,0.1c0.1,0.1,0.2,0.2,0.3,0.3c0,0,0.1,0.1,0.1,0.1c0,0,0.1,0,0.1,0.1 c0.1,0.1,0.1,0.1,0.2,0.2c0,0,0.1,0,0.1,0.1c0,0,0,0-0.1,0l-4.1-2.4c-0.3-0.2-0.6-0.4-0.9-0.7c-0.8-0.9-1.2-2.2-1.2-3.9 c0-0.3,0-0.5,0-0.8c0-0.1,0-0.2,0-0.3c0-0.1,0-0.2,0-0.4c0-0.1,0-0.1,0-0.2c0-0.2,0.1-0.4,0.1-0.6c0-0.1,0-0.2,0-0.3 c0,0,0-0.1,0-0.1c0-0.1,0.1-0.2,0.1-0.4c0-0.1,0-0.2,0.1-0.3c0-0.1,0-0.1,0.1-0.2c0-0.1,0.1-0.2,0.1-0.3c0-0.1,0-0.2,0.1-0.2 c0-0.1,0.1-0.2,0.1-0.3c0-0.1,0.1-0.2,0.1-0.2c0,0,0-0.1,0-0.1c0.1-0.2,0.2-0.4,0.3-0.6c0,0,0,0,0,0c0,0,0-0.1,0-0.1 c0.1-0.2,0.2-0.3,0.2-0.5c0-0.1,0.1-0.1,0.1-0.2c0-0.1,0.1-0.1,0.1-0.2c0-0.1,0.1-0.1,0.1-0.2c0.1-0.1,0.2-0.3,0.2-0.4 c0,0,0-0.1,0.1-0.1c0,0,0,0,0,0c0.1-0.2,0.2-0.4,0.4-0.6c0,0,0-0.1,0.1-0.1c0-0.1,0.1-0.1,0.1-0.2c0.1-0.1,0.1-0.2,0.2-0.3 c0-0.1,0.1-0.1,0.1-0.2c0.1-0.1,0.1-0.2,0.2-0.3c0-0.1,0.1-0.1,0.1-0.2c0.1-0.1,0.1-0.1,0.2-0.2c0.1-0.1,0.2-0.2,0.3-0.3 c0,0,0.1-0.1,0.1-0.1c0-0.1,0.1-0.1,0.2-0.2c0.2-0.2,0.3-0.3,0.5-0.5c0.1-0.1,0.1-0.1,0.2-0.2c0,0,0.1-0.1,0.2-0.1 c0.1-0.1,0.2-0.2,0.2-0.2c0.1-0.1,0.3-0.2,0.4-0.4c0.1-0.1,0.2-0.1,0.2-0.2c0.1-0.1,0.3-0.2,0.4-0.3c0.1-0.1,0.1-0.1,0.2-0.2 c0.2-0.2,0.5-0.3,0.7-0.4c0.2-0.1,0.3-0.2,0.5-0.2c0,0,0.1,0,0.1-0.1c0.1-0.1,0.2-0.1,0.3-0.2c0,0,0.1,0,0.1,0c0,0,0,0,0,0 c0.1,0,0.2-0.1,0.3-0.1c0,0,0.1,0,0.1,0c0.1,0,0.3-0.1,0.4-0.1c0,0,0,0,0,0c0,0,0,0,0,0c0.2-0.1,0.4-0.1,0.6-0.1c0,0,0,0,0,0 c0.2,0,0.3,0,0.5,0c0,0,0,0,0.1,0c0,0,0,0,0,0c0.1,0,0.3,0,0.4,0c0,0,0,0,0,0c0,0,0,0,0.1,0c0.1,0,0.2,0,0.3,0c0,0,0,0,0.1,0 c0,0,0,0,0,0c0.1,0,0.2,0,0.4,0.1c0,0,0,0,0,0c0,0,0,0,0,0c0.1,0,0.2,0.1,0.3,0.1c0,0,0,0,0,0c0,0,0,0,0,0 c0.1,0,0.1,0.1,0.2,0.1c0,0,0.1,0,0.1,0c0,0,0,0,0,0c0,0,0,0,0,0L275.1,293.2z"></path> <g> <linearGradient id="SVGID_00000127755251171259185000000016815419865576315555_" gradientUnits="userSpaceOnUse" x1="262.8096" y1="301.923" x2="277.1656" y2="301.923"> <stop offset="0" style="stop-color:#303030"></stop> <stop offset="1" style="stop-color:#4C4A4B"></stop> </linearGradient> <path style="fill:url(#SVGID_00000127755251171259185000000016815419865576315555_);" d="M277.2,297.8 c0,4.6-3.2,10.1-7.2,12.4c-2,1.2-3.8,1.3-5.1,0.5c0,0,0,0-0.1,0c0,0,0,0,0,0c-0.1,0-0.2-0.1-0.2-0.2c0,0-0.1,0-0.1-0.1 c0,0-0.1-0.1-0.1-0.1c-0.1-0.1-0.2-0.2-0.3-0.3c0,0-0.1-0.1-0.1-0.1c0-0.1-0.1-0.1-0.1-0.2c0,0,0,0,0,0c0,0-0.1-0.1-0.1-0.1 c0-0.1-0.1-0.1-0.1-0.2c0,0,0,0,0,0c0,0,0-0.1-0.1-0.1c-0.1-0.2-0.2-0.4-0.3-0.6c0,0,0-0.1,0-0.1c0,0,0,0,0-0.1 c0,0,0-0.1,0-0.1c0,0,0-0.1,0-0.2c0-0.1,0-0.2-0.1-0.2c0,0,0,0,0,0c0-0.1,0-0.2-0.1-0.2c0-0.1,0-0.1,0-0.2c0,0,0,0,0-0.1 c0-0.1,0-0.2,0-0.2c0-0.1,0-0.1,0-0.2c0-0.1,0-0.2,0-0.3c0-0.1,0-0.1,0-0.2c0,0,0,0,0-0.1c0-0.1,0-0.1,0-0.2 c0-0.1,0-0.1,0-0.2c0-0.1,0-0.2,0-0.2c0-0.1,0-0.2,0-0.3c0-0.5,0.1-1,0.2-1.5c0,0,0-0.1,0-0.1c0.2-0.8,0.4-1.6,0.7-2.3 c0-0.1,0.1-0.3,0.2-0.4s0.1-0.3,0.2-0.4c0.3-0.6,0.6-1.2,0.9-1.8c0.1-0.1,0.2-0.3,0.2-0.4c1.2-1.9,2.8-3.6,4.5-4.7 c0.1-0.1,0.2-0.1,0.3-0.2c0.1-0.1,0.2-0.1,0.3-0.1c0.2-0.1,0.3-0.2,0.5-0.2c0.1,0,0.1,0,0.2-0.1c0,0,0.1,0,0.1-0.1 c0.1,0,0.1,0,0.2-0.1c0.1,0,0.1,0,0.2-0.1c0,0,0.1,0,0.1,0c0,0,0.1,0,0.1,0c0,0,0.1,0,0.1,0h0c0.1,0,0.1,0,0.2-0.1 c0.1,0,0.1,0,0.2,0c0.1,0,0.2,0,0.3-0.1c0.1,0,0.1,0,0.2,0c0.1,0,0.2,0,0.3,0c0.1,0,0.1,0,0.2,0c0,0,0.1,0,0.1,0 c0.1,0,0.3,0,0.4,0c0,0,0.1,0,0.1,0c0.1,0,0.3,0,0.4,0c0,0,0,0,0,0c0,0,0.1,0,0.1,0c0.1,0,0.1,0,0.2,0c0,0,0,0,0,0 c0,0,0.1,0,0.1,0c0,0,0.1,0,0.1,0c0.1,0,0.2,0.1,0.3,0.1c0.1,0,0.2,0.1,0.3,0.2c1.1,0.6,1.9,1.9,2.1,3.8 C277.1,297.2,277.2,297.5,277.2,297.8z"></path> </g> </g> <g> <linearGradient id="SVGID_00000158020915959830161310000016741241688137711785_" gradientUnits="userSpaceOnUse" x1="266.0102" y1="301.937" x2="274.9427" y2="301.937"> <stop offset="0" style="stop-color:#303030"></stop> <stop offset="1" style="stop-color:#3C3C3C"></stop> </linearGradient> <path style="fill:url(#SVGID_00000158020915959830161310000016741241688137711785_);" d="M274.9,299.1c0,3.1-2.2,7-4.9,8.6 c-1.6,0.9-3.1,0.9-4,0c0.8,0.1,1.7-0.1,2.6-0.7c2.7-1.6,4.9-5.4,4.9-8.6c0-1.3-0.4-2.2-1-2.8C274,295.8,274.9,297,274.9,299.1z "></path> </g> <g> <linearGradient id="SVGID_00000104706108756143694560000008680030678129059970_" gradientUnits="userSpaceOnUse" x1="269.7312" y1="294.7315" x2="268.9745" y2="306.6758"> <stop offset="0" style="stop-color:#3F3F3F"></stop> <stop offset="1" style="stop-color:#727272"></stop> </linearGradient> <path style="fill:url(#SVGID_00000104706108756143694560000008680030678129059970_);" d="M273.6,298.4c0,3.1-2.2,7-4.9,8.6 c-1,0.6-1.9,0.8-2.6,0.7c-0.6-0.6-1-1.6-1-2.8c0-3.1,2.2-7,4.9-8.6c1-0.6,1.9-0.8,2.6-0.7C273.2,296.2,273.6,297.1,273.6,298.4 z"></path> </g> <g> <linearGradient id="SVGID_00000066514491955407481460000005236090376171695547_" gradientUnits="userSpaceOnUse" x1="267.5846" y1="301.2682" x2="271.8256" y2="301.2682"> <stop offset="0" style="stop-color:#303030"></stop> <stop offset="1" style="stop-color:#231A1A"></stop> </linearGradient> <path style="fill:url(#SVGID_00000066514491955407481460000005236090376171695547_);" d="M271.8,299.4 C271.8,299.4,271.8,299.4,271.8,299.4C271.8,299.4,271.8,299.4,271.8,299.4C271.8,299.4,271.8,299.4,271.8,299.4 c-0.1,0-0.1-0.1-0.1-0.1c0,0,0,0,0,0c0,0,0,0,0,0c0,0,0,0,0,0c0,0,0,0,0,0c0,0,0,0,0,0c0,0,0,0,0,0c0,0,0,0,0,0c0,0,0,0,0,0 c0,0,0,0,0,0c0,0-0.1,0-0.1,0c0,0,0,0,0,0c0,0-0.1,0-0.1,0c0,0,0,0-0.1,0c0,0-0.1,0-0.1,0c0,0,0,0,0,0c0,0,0,0-0.1,0 c0,0,0,0,0,0c0,0,0,0,0,0c0,0,0,0,0,0h0c0,0,0,0,0,0c0,0,0,0,0,0c0,0,0,0,0,0c0,0,0,0,0,0c0,0,0,0,0,0c0,0-0.1,0-0.1,0 c0,0,0,0,0,0c0,0,0,0,0,0c0,0,0,0,0,0c0,0,0,0-0.1,0c0,0-0.1,0-0.1,0.1c0,0-0.1,0-0.1,0.1c0,0,0,0-0.1,0c0,0-0.1,0.1-0.1,0.1 c0,0,0,0-0.1,0.1c0,0-0.1,0.1-0.1,0.1c0,0,0,0-0.1,0.1c0,0-0.1,0.1-0.1,0.1c0,0-0.1,0.1-0.1,0.1c0,0,0,0.1-0.1,0.1 c0,0,0,0.1-0.1,0.1c0,0-0.1,0.1-0.1,0.1c0,0,0,0-0.1,0.1c0,0-0.1,0.1-0.1,0.1c0,0,0,0,0,0.1c0,0,0,0.1-0.1,0.1 c0,0,0,0.1-0.1,0.1c0,0,0,0,0,0c0,0.1-0.1,0.1-0.1,0.2c0,0,0,0,0,0.1c0,0.1-0.1,0.1-0.1,0.2c0,0,0,0,0,0c0,0,0,0.1,0,0.1 s0,0.1,0,0.1c0,0,0,0,0,0.1c0,0,0,0.1,0,0.1c0,0,0,0.1,0,0.1c0,0,0,0.1,0,0.1c0,0,0,0.1,0,0.1c0,0,0,0.1,0,0.1c0,0,0,0,0,0 c0,0,0,0,0,0.1c0,0,0,0,0,0c0,0.1,0,0.1,0,0.2c0,0,0,0,0,0.1c0,0,0,0,0,0.1c0,0,0,0.1,0,0.1c0,0,0,0,0,0.1c0,0,0,0,0,0.1 c0,0,0,0,0,0c0,0,0,0,0,0c0,0,0,0,0,0c0,0,0,0.1,0,0.1c0,0,0,0,0,0.1c0,0,0,0,0,0.1c0,0,0,0,0,0c0,0,0,0,0,0.1c0,0,0,0,0,0.1 c0,0,0,0,0,0c0,0,0,0,0,0.1c0,0,0,0,0,0c0,0,0,0,0,0c0,0,0,0,0,0c0,0,0,0,0,0c0,0.1,0,0.1,0.1,0.1c0,0,0,0,0,0c0,0,0,0,0,0 c0,0,0,0,0,0c0,0,0,0,0,0c0,0,0,0,0,0c0,0,0,0,0,0c0,0,0,0,0,0c0,0,0.1,0.1,0.1,0.1c0,0,0,0,0,0c0,0,0,0,0,0c0,0,0,0,0.1,0 c0,0,0,0,0,0c0,0,0,0,0,0l-1.1-0.6c-0.1,0-0.2-0.1-0.2-0.2c-0.2-0.2-0.3-0.6-0.3-1c0-0.1,0-0.1,0-0.2c0,0,0,0,0-0.1 c0,0,0-0.1,0-0.1c0,0,0,0,0,0c0,0,0-0.1,0-0.1c0,0,0,0,0-0.1c0,0,0,0,0,0c0,0,0-0.1,0-0.1c0,0,0-0.1,0-0.1c0,0,0,0,0,0 c0,0,0-0.1,0-0.1c0,0,0,0,0-0.1c0,0,0-0.1,0-0.1c0,0,0,0,0-0.1c0,0,0,0,0,0c0-0.1,0-0.1,0.1-0.2c0,0,0,0,0,0c0,0,0,0,0,0 c0,0,0-0.1,0.1-0.1c0,0,0,0,0,0c0,0,0,0,0-0.1c0,0,0,0,0-0.1c0,0,0-0.1,0.1-0.1c0,0,0,0,0,0c0,0,0,0,0,0c0-0.1,0.1-0.1,0.1-0.2 c0,0,0,0,0,0c0,0,0,0,0-0.1c0,0,0-0.1,0.1-0.1c0,0,0,0,0,0c0,0,0,0,0.1-0.1c0,0,0,0,0,0c0,0,0,0,0-0.1c0,0,0-0.1,0.1-0.1 c0,0,0,0,0,0c0,0,0,0,0,0c0,0,0.1-0.1,0.1-0.1c0,0,0,0,0,0c0,0,0,0,0,0c0,0,0,0,0.1-0.1c0,0,0.1-0.1,0.1-0.1c0,0,0,0,0.1-0.1 c0,0,0.1-0.1,0.1-0.1c0,0,0,0,0.1,0c0.1,0,0.1-0.1,0.2-0.1c0,0,0.1,0,0.1-0.1c0,0,0,0,0,0c0,0,0.1,0,0.1,0c0,0,0,0,0,0 c0,0,0,0,0,0c0,0,0.1,0,0.1,0c0,0,0,0,0,0c0,0,0.1,0,0.1,0c0,0,0,0,0,0c0,0,0,0,0,0c0.1,0,0.1,0,0.2,0h0c0,0,0.1,0,0.1,0 c0,0,0,0,0,0c0,0,0,0,0,0c0,0,0.1,0,0.1,0c0,0,0,0,0,0c0,0,0,0,0,0c0,0,0.1,0,0.1,0c0,0,0,0,0,0c0,0,0,0,0,0c0,0,0.1,0,0.1,0 c0,0,0,0,0,0c0,0,0,0,0,0c0,0,0.1,0,0.1,0c0,0,0,0,0,0c0,0,0,0,0,0c0,0,0,0,0,0c0,0,0,0,0,0c0,0,0,0,0,0c0,0,0,0,0,0 L271.8,299.4z"></path> <g> <linearGradient id="SVGID_00000147912968419515293360000007886923668586636188_" gradientUnits="userSpaceOnUse" x1="268.6663" y1="301.6468" x2="272.3648" y2="301.6468"> <stop offset="0" style="stop-color:#3F3F3F"></stop> <stop offset="1" style="stop-color:#727272"></stop> </linearGradient> <path style="fill:url(#SVGID_00000147912968419515293360000007886923668586636188_);" d="M272.4,300.6c0,1.2-0.8,2.6-1.8,3.2 c-0.5,0.3-1,0.3-1.3,0.1c0,0,0,0,0,0c0,0,0,0,0,0c0,0,0,0-0.1,0c0,0,0,0,0,0c0,0,0,0,0,0c0,0-0.1-0.1-0.1-0.1c0,0,0,0,0,0 c0,0,0,0,0,0c0,0,0,0,0,0c0,0,0,0,0,0c0,0,0,0,0,0c0,0,0,0,0,0c0,0,0,0,0,0c0,0,0-0.1-0.1-0.1c0,0,0,0,0,0c0,0,0,0,0,0 c0,0,0,0,0,0c0,0,0,0,0,0c0,0,0,0,0-0.1c0,0,0,0,0,0c0,0,0,0,0-0.1c0,0,0,0,0-0.1c0,0,0,0,0,0c0,0,0,0,0-0.1c0,0,0,0,0-0.1 c0,0,0-0.1,0-0.1c0,0,0,0,0,0c0,0,0,0,0,0c0,0,0,0,0,0c0,0,0,0,0-0.1c0,0,0,0,0-0.1c0,0,0-0.1,0-0.1c0-0.1,0-0.3,0-0.4 c0,0,0,0,0,0c0-0.2,0.1-0.4,0.2-0.6c0,0,0-0.1,0-0.1s0-0.1,0-0.1c0.1-0.2,0.1-0.3,0.2-0.5c0,0,0-0.1,0.1-0.1 c0.3-0.5,0.7-0.9,1.2-1.2c0,0,0.1,0,0.1-0.1c0,0,0,0,0.1,0c0,0,0.1,0,0.1-0.1c0,0,0,0,0,0c0,0,0,0,0,0c0,0,0,0,0,0 c0,0,0,0,0,0c0,0,0,0,0,0c0,0,0,0,0,0c0,0,0,0,0,0h0c0,0,0,0,0,0c0,0,0,0,0,0c0,0,0,0,0.1,0c0,0,0,0,0,0c0,0,0.1,0,0.1,0 c0,0,0,0,0,0c0,0,0,0,0,0c0,0,0.1,0,0.1,0c0,0,0,0,0,0c0,0,0.1,0,0.1,0c0,0,0,0,0,0c0,0,0,0,0,0c0,0,0,0,0,0c0,0,0,0,0,0 c0,0,0,0,0,0c0,0,0,0,0,0c0,0,0,0,0.1,0c0,0,0.1,0,0.1,0c0.3,0.2,0.5,0.5,0.5,1C272.4,300.4,272.4,300.5,272.4,300.6z"></path> </g> </g> </g> <g> <g> <linearGradient id="SVGID_00000158004787287549102910000014517046705758942139_" gradientUnits="userSpaceOnUse" x1="195.9" y1="333.7456" x2="212.3616" y2="333.7456"> <stop offset="0" style="stop-color:#303030"></stop> <stop offset="1" style="stop-color:#727272"></stop> </linearGradient> <path style="fill:url(#SVGID_00000158004787287549102910000014517046705758942139_);" d="M212.4,326.5 C212.3,326.5,212.3,326.5,212.4,326.5C212.3,326.4,212.3,326.4,212.4,326.5c-0.2-0.1-0.3-0.1-0.4-0.2c0,0-0.1,0-0.1,0 c-0.1,0-0.1,0-0.2-0.1c0,0-0.1,0-0.1,0c0,0,0,0,0,0c0,0,0,0,0,0c0,0,0,0-0.1,0c0,0,0,0,0,0c-0.1,0-0.1,0-0.2,0 c-0.1,0-0.1,0-0.2,0c0,0,0,0-0.1,0c-0.1,0-0.2,0-0.3,0c0,0-0.1,0-0.1,0c-0.1,0-0.3,0-0.4,0c-0.1,0-0.2,0-0.3,0 c-0.1,0-0.2,0-0.3,0c-0.1,0-0.1,0-0.2,0c-0.1,0-0.2,0-0.3,0.1c0,0-0.1,0-0.1,0c0,0,0,0,0,0c-0.1,0-0.1,0-0.2,0.1h0 c0,0,0,0-0.1,0c0,0-0.1,0-0.1,0c0,0-0.1,0-0.1,0c-0.1,0-0.1,0-0.2,0.1c-0.1,0-0.1,0-0.2,0.1c-0.1,0-0.2,0.1-0.3,0.1 c-0.1,0-0.1,0.1-0.2,0.1c0,0-0.1,0-0.1,0.1c-0.1,0-0.1,0.1-0.2,0.1c-0.1,0-0.2,0.1-0.3,0.1c-0.1,0.1-0.2,0.1-0.3,0.2 c-0.1,0.1-0.2,0.1-0.3,0.2c-0.1,0.1-0.1,0.1-0.2,0.2c-0.2,0.1-0.3,0.2-0.5,0.3c-0.1,0.1-0.2,0.1-0.2,0.2 c-0.1,0.1-0.3,0.2-0.4,0.4c-0.1,0.1-0.2,0.1-0.2,0.2c-0.1,0.1-0.2,0.2-0.3,0.3c-0.2,0.2-0.3,0.3-0.5,0.5 c-0.1,0.1-0.2,0.2-0.3,0.3c-0.1,0.1-0.2,0.2-0.3,0.3c-0.1,0.1-0.2,0.3-0.3,0.4c-0.1,0.1-0.1,0.2-0.2,0.3 c-0.1,0.2-0.2,0.3-0.4,0.5c0,0.1-0.1,0.1-0.1,0.2c-0.1,0.1-0.2,0.2-0.2,0.4c-0.1,0.1-0.2,0.3-0.2,0.4c0,0,0,0.1-0.1,0.1 c-0.1,0.2-0.2,0.4-0.4,0.6c0,0.1-0.1,0.1-0.1,0.2c-0.1,0.2-0.2,0.5-0.3,0.7c0,0,0,0.1,0,0.1c-0.1,0.1-0.1,0.3-0.2,0.4 c-0.1,0.1-0.1,0.3-0.2,0.4c0,0.1-0.1,0.2-0.1,0.2c-0.1,0.2-0.1,0.4-0.2,0.6c0,0.1-0.1,0.2-0.1,0.3c0,0.2-0.1,0.3-0.1,0.5 c0,0.1-0.1,0.2-0.1,0.4c0,0.1,0,0.2-0.1,0.3c0,0,0,0.1,0,0.1c0,0.1,0,0.2-0.1,0.3c0,0,0,0.1,0,0.1c0,0.2-0.1,0.4-0.1,0.6 c0,0.1,0,0.2,0,0.3c0,0.1,0,0.2,0,0.2c0,0.1,0,0.2,0,0.3c0,0.1,0,0.2,0,0.2c0,0.1,0,0.2,0,0.2c0,0.1,0,0.1,0,0.2c0,0,0,0,0,0.1 c0,0.1,0,0.1,0,0.2c0,0.1,0,0.2,0,0.3c0,0.1,0,0.2,0,0.2c0,0.1,0,0.2,0,0.2c0,0,0,0,0,0.1c0,0.1,0,0.1,0,0.2 c0,0.1,0,0.2,0.1,0.2v0c0,0.1,0,0.2,0.1,0.2c0,0.1,0,0.1,0,0.2c0,0,0,0.1,0,0.1c0,0,0,0,0,0.1c0,0,0,0.1,0,0.1 c0.1,0.2,0.2,0.4,0.3,0.6c0,0,0,0.1,0.1,0.1c0,0,0,0,0,0c0,0.1,0.1,0.1,0.1,0.2c0,0,0,0.1,0.1,0.1c0,0,0,0,0,0 c0,0.1,0.1,0.1,0.1,0.2c0,0,0.1,0.1,0.1,0.1c0.1,0.1,0.2,0.2,0.3,0.3c0,0,0.1,0.1,0.1,0.1c0,0,0.1,0,0.1,0.1 c0.1,0.1,0.1,0.1,0.2,0.2c0,0,0.1,0,0.1,0.1c0,0,0,0-0.1,0l-4.1-2.4c-0.3-0.2-0.6-0.4-0.9-0.7c-0.8-0.9-1.2-2.2-1.2-3.9 c0-0.3,0-0.5,0-0.8c0-0.1,0-0.2,0-0.3c0-0.1,0-0.2,0-0.4c0-0.1,0-0.1,0-0.2c0-0.2,0.1-0.4,0.1-0.6c0-0.1,0-0.2,0-0.3 c0,0,0-0.1,0-0.1c0-0.1,0.1-0.2,0.1-0.4c0-0.1,0-0.2,0.1-0.3c0-0.1,0-0.1,0.1-0.2c0-0.1,0.1-0.2,0.1-0.3c0-0.1,0-0.2,0.1-0.2 c0-0.1,0.1-0.2,0.1-0.3c0-0.1,0.1-0.2,0.1-0.2c0,0,0-0.1,0-0.1c0.1-0.2,0.2-0.4,0.3-0.6c0,0,0,0,0,0c0,0,0-0.1,0-0.1 c0.1-0.2,0.2-0.3,0.2-0.5c0-0.1,0.1-0.1,0.1-0.2c0-0.1,0.1-0.1,0.1-0.2c0-0.1,0.1-0.1,0.1-0.2c0.1-0.1,0.2-0.3,0.2-0.4 c0,0,0-0.1,0.1-0.1c0,0,0,0,0,0c0.1-0.2,0.2-0.4,0.4-0.6c0,0,0-0.1,0.1-0.1c0-0.1,0.1-0.1,0.1-0.2c0.1-0.1,0.1-0.2,0.2-0.3 c0-0.1,0.1-0.1,0.1-0.2c0.1-0.1,0.1-0.2,0.2-0.3c0-0.1,0.1-0.1,0.1-0.2c0.1-0.1,0.1-0.1,0.2-0.2c0.1-0.1,0.2-0.2,0.3-0.3 c0,0,0.1-0.1,0.1-0.1c0-0.1,0.1-0.1,0.2-0.2c0.2-0.2,0.3-0.3,0.5-0.5c0.1-0.1,0.1-0.1,0.2-0.2c0,0,0.1-0.1,0.2-0.1 c0.1-0.1,0.2-0.2,0.2-0.2c0.1-0.1,0.3-0.2,0.4-0.4c0.1-0.1,0.2-0.1,0.2-0.2c0.1-0.1,0.3-0.2,0.4-0.3c0.1-0.1,0.1-0.1,0.2-0.2 c0.2-0.2,0.5-0.3,0.7-0.4c0.2-0.1,0.3-0.2,0.5-0.2c0,0,0.1,0,0.1-0.1c0.1-0.1,0.2-0.1,0.3-0.2c0,0,0.1,0,0.1,0c0,0,0,0,0,0 c0.1,0,0.2-0.1,0.3-0.1c0,0,0.1,0,0.1,0c0.1,0,0.3-0.1,0.4-0.1c0,0,0,0,0,0c0,0,0,0,0,0c0.2-0.1,0.4-0.1,0.6-0.1c0,0,0,0,0,0 c0.2,0,0.3,0,0.5,0c0,0,0,0,0.1,0c0,0,0,0,0,0c0.1,0,0.3,0,0.4,0c0,0,0,0,0,0c0,0,0,0,0.1,0c0.1,0,0.2,0,0.3,0c0,0,0,0,0.1,0 c0,0,0,0,0,0c0.1,0,0.2,0,0.4,0.1l0,0c0,0,0,0,0,0c0.1,0,0.2,0.1,0.3,0.1c0,0,0,0,0,0c0,0,0,0,0,0c0.1,0,0.1,0.1,0.2,0.1 c0,0,0.1,0,0.1,0c0,0,0,0,0,0c0,0,0,0,0,0L212.4,326.5z"></path> <g> <linearGradient id="SVGID_00000023274581565655660130000013649878046031062956_" gradientUnits="userSpaceOnUse" x1="200.0986" y1="335.2151" x2="214.4547" y2="335.2151"> <stop offset="0" style="stop-color:#303030"></stop> <stop offset="1" style="stop-color:#4C4A4B"></stop> </linearGradient> <path style="fill:url(#SVGID_00000023274581565655660130000013649878046031062956_);" d="M214.5,331.1 c0,4.6-3.2,10.1-7.2,12.4c-2,1.2-3.8,1.3-5.1,0.5c0,0,0,0-0.1,0c0,0,0,0,0,0c-0.1,0-0.2-0.1-0.2-0.2c0,0-0.1,0-0.1-0.1 c0,0-0.1-0.1-0.1-0.1c-0.1-0.1-0.2-0.2-0.3-0.3c0,0-0.1-0.1-0.1-0.1c0-0.1-0.1-0.1-0.1-0.2c0,0,0,0,0,0c0,0-0.1-0.1-0.1-0.1 c0-0.1-0.1-0.1-0.1-0.2c0,0,0,0,0,0c0,0,0-0.1-0.1-0.1c-0.1-0.2-0.2-0.4-0.3-0.6c0,0,0-0.1,0-0.1c0,0,0,0,0-0.1 c0,0,0-0.1,0-0.1c0,0,0-0.1,0-0.2c0-0.1,0-0.2-0.1-0.2v0c0-0.1,0-0.2-0.1-0.2c0-0.1,0-0.1,0-0.2c0,0,0,0,0-0.1 c0-0.1,0-0.2,0-0.2c0-0.1,0-0.1,0-0.2c0-0.1,0-0.2,0-0.3c0-0.1,0-0.1,0-0.2c0,0,0,0,0-0.1c0-0.1,0-0.1,0-0.2 c0-0.1,0-0.1,0-0.2c0-0.1,0-0.2,0-0.2c0-0.1,0-0.2,0-0.3c0-0.5,0.1-1,0.2-1.5c0,0,0-0.1,0-0.1c0.2-0.8,0.4-1.6,0.7-2.3 c0-0.1,0.1-0.3,0.2-0.4c0.1-0.1,0.1-0.3,0.2-0.4c0.3-0.6,0.6-1.2,0.9-1.8c0.1-0.1,0.2-0.3,0.2-0.4c1.2-1.9,2.8-3.6,4.5-4.7 c0.1-0.1,0.2-0.1,0.3-0.2c0.1-0.1,0.2-0.1,0.3-0.1c0.2-0.1,0.3-0.2,0.5-0.2c0.1,0,0.1,0,0.2-0.1c0,0,0.1,0,0.1-0.1 c0.1,0,0.1,0,0.2-0.1c0.1,0,0.1,0,0.2-0.1c0,0,0.1,0,0.1,0c0,0,0.1,0,0.1,0c0,0,0.1,0,0.1,0h0c0.1,0,0.1,0,0.2-0.1 c0.1,0,0.1,0,0.2,0c0.1,0,0.2,0,0.3-0.1c0.1,0,0.1,0,0.2,0c0.1,0,0.2,0,0.3,0c0.1,0,0.1,0,0.2,0c0,0,0.1,0,0.1,0 c0.1,0,0.3,0,0.4,0c0,0,0.1,0,0.1,0c0.1,0,0.3,0,0.4,0c0,0,0,0,0,0c0,0,0.1,0,0.1,0c0.1,0,0.1,0,0.2,0c0,0,0,0,0,0 c0,0,0.1,0,0.1,0c0,0,0.1,0,0.1,0c0.1,0,0.2,0.1,0.3,0.1c0.1,0,0.2,0.1,0.3,0.2c1.1,0.6,1.9,1.9,2.1,3.8 C214.4,330.5,214.5,330.8,214.5,331.1z"></path> </g> </g> <g> <linearGradient id="SVGID_00000156588753916338210700000002455783723576233124_" gradientUnits="userSpaceOnUse" x1="203.2992" y1="335.2292" x2="212.2318" y2="335.2292"> <stop offset="0" style="stop-color:#303030"></stop> <stop offset="1" style="stop-color:#3C3C3C"></stop> </linearGradient> <path style="fill:url(#SVGID_00000156588753916338210700000002455783723576233124_);" d="M212.2,332.4c0,3.1-2.2,7-4.9,8.6 c-1.6,0.9-3.1,0.9-4,0c0.8,0.1,1.7-0.1,2.6-0.7c2.7-1.6,4.9-5.4,4.9-8.6c0-1.3-0.4-2.2-1-2.8 C211.3,329.1,212.2,330.3,212.2,332.4z"></path> </g> <g> <linearGradient id="SVGID_00000072987843470089233390000015210002388693465994_" gradientUnits="userSpaceOnUse" x1="207.0203" y1="328.0236" x2="206.2636" y2="339.9679"> <stop offset="0" style="stop-color:#3F3F3F"></stop> <stop offset="1" style="stop-color:#727272"></stop> </linearGradient> <path style="fill:url(#SVGID_00000072987843470089233390000015210002388693465994_);" d="M210.9,331.7c0,3.1-2.2,7-4.9,8.6 c-1,0.6-1.9,0.8-2.6,0.7c-0.6-0.6-1-1.6-1-2.8c0-3.1,2.2-7,4.9-8.6c1-0.6,1.9-0.8,2.6-0.7C210.5,329.5,210.8,330.4,210.9,331.7 z"></path> </g> <g> <linearGradient id="SVGID_00000022533253962105620490000007640219117329250992_" gradientUnits="userSpaceOnUse" x1="204.8736" y1="334.5603" x2="209.1146" y2="334.5603"> <stop offset="0" style="stop-color:#303030"></stop> <stop offset="1" style="stop-color:#231A1A"></stop> </linearGradient> <path style="fill:url(#SVGID_00000022533253962105620490000007640219117329250992_);" d="M209.1,332.7 C209.1,332.7,209.1,332.7,209.1,332.7C209.1,332.7,209.1,332.7,209.1,332.7C209.1,332.7,209,332.7,209.1,332.7 c-0.1,0-0.1-0.1-0.1-0.1c0,0,0,0,0,0c0,0,0,0,0,0c0,0,0,0,0,0l0,0c0,0,0,0,0,0l0,0c0,0,0,0,0,0c0,0,0,0,0,0c0,0,0,0,0,0 c0,0-0.1,0-0.1,0c0,0,0,0,0,0c0,0-0.1,0-0.1,0c0,0,0,0-0.1,0c0,0-0.1,0-0.1,0c0,0,0,0,0,0c0,0,0,0-0.1,0c0,0,0,0,0,0 c0,0,0,0,0,0c0,0,0,0,0,0h0c0,0,0,0,0,0c0,0,0,0,0,0c0,0,0,0,0,0c0,0,0,0,0,0c0,0,0,0,0,0c0,0-0.1,0-0.1,0c0,0,0,0,0,0 c0,0,0,0,0,0c0,0,0,0,0,0c0,0,0,0-0.1,0c0,0-0.1,0-0.1,0.1c0,0-0.1,0-0.1,0.1c0,0,0,0-0.1,0c0,0-0.1,0.1-0.1,0.1 c0,0,0,0-0.1,0.1c0,0-0.1,0.1-0.1,0.1c0,0,0,0-0.1,0.1c0,0-0.1,0.1-0.1,0.1c0,0-0.1,0.1-0.1,0.1c0,0,0,0.1-0.1,0.1 c0,0,0,0.1-0.1,0.1c0,0-0.1,0.1-0.1,0.1c0,0,0,0-0.1,0.1c0,0-0.1,0.1-0.1,0.1c0,0,0,0,0,0.1c0,0,0,0.1-0.1,0.1 c0,0,0,0.1-0.1,0.1c0,0,0,0,0,0c0,0.1-0.1,0.1-0.1,0.2c0,0,0,0,0,0.1c0,0.1-0.1,0.1-0.1,0.2c0,0,0,0,0,0c0,0,0,0.1,0,0.1 c0,0,0,0.1,0,0.1c0,0,0,0,0,0.1c0,0,0,0.1,0,0.1c0,0,0,0.1,0,0.1c0,0,0,0.1,0,0.1c0,0,0,0.1,0,0.1c0,0,0,0.1,0,0.1c0,0,0,0,0,0 c0,0,0,0,0,0.1c0,0,0,0,0,0c0,0.1,0,0.1,0,0.2c0,0,0,0,0,0.1c0,0,0,0,0,0.1c0,0,0,0.1,0,0.1c0,0,0,0,0,0.1c0,0,0,0,0,0.1 c0,0,0,0,0,0c0,0,0,0,0,0c0,0,0,0,0,0c0,0,0,0.1,0,0.1c0,0,0,0,0,0.1c0,0,0,0,0,0.1c0,0,0,0,0,0c0,0,0,0,0,0.1c0,0,0,0,0,0.1v0 c0,0,0,0,0,0.1c0,0,0,0,0,0c0,0,0,0,0,0c0,0,0,0,0,0c0,0,0,0,0,0c0,0.1,0,0.1,0.1,0.1c0,0,0,0,0,0c0,0,0,0,0,0c0,0,0,0,0,0 c0,0,0,0,0,0l0,0c0,0,0,0,0,0c0,0,0,0,0,0c0,0,0.1,0.1,0.1,0.1c0,0,0,0,0,0c0,0,0,0,0,0c0,0,0,0,0.1,0c0,0,0,0,0,0c0,0,0,0,0,0 l-1.1-0.6c-0.1,0-0.2-0.1-0.2-0.2c-0.2-0.2-0.3-0.6-0.3-1c0-0.1,0-0.1,0-0.2c0,0,0,0,0-0.1c0,0,0-0.1,0-0.1c0,0,0,0,0,0 c0,0,0-0.1,0-0.1c0,0,0,0,0-0.1c0,0,0,0,0,0c0,0,0-0.1,0-0.1c0,0,0-0.1,0-0.1c0,0,0,0,0,0c0,0,0-0.1,0-0.1c0,0,0,0,0-0.1 c0,0,0-0.1,0-0.1c0,0,0,0,0-0.1c0,0,0,0,0,0c0-0.1,0-0.1,0.1-0.2c0,0,0,0,0,0c0,0,0,0,0,0c0,0,0-0.1,0.1-0.1c0,0,0,0,0,0 c0,0,0,0,0-0.1c0,0,0,0,0-0.1c0,0,0-0.1,0.1-0.1c0,0,0,0,0,0c0,0,0,0,0,0c0-0.1,0.1-0.1,0.1-0.2c0,0,0,0,0,0c0,0,0,0,0-0.1 c0,0,0-0.1,0.1-0.1c0,0,0,0,0,0c0,0,0,0,0.1-0.1c0,0,0,0,0,0c0,0,0,0,0-0.1c0,0,0-0.1,0.1-0.1c0,0,0,0,0,0c0,0,0,0,0,0 c0,0,0.1-0.1,0.1-0.1c0,0,0,0,0,0c0,0,0,0,0,0c0,0,0,0,0.1-0.1c0,0,0.1-0.1,0.1-0.1c0,0,0,0,0.1-0.1c0,0,0.1-0.1,0.1-0.1 c0,0,0,0,0.1,0c0.1,0,0.1-0.1,0.2-0.1c0,0,0.1,0,0.1-0.1c0,0,0,0,0,0c0,0,0.1,0,0.1,0c0,0,0,0,0,0c0,0,0,0,0,0c0,0,0.1,0,0.1,0 c0,0,0,0,0,0c0,0,0.1,0,0.1,0c0,0,0,0,0,0c0,0,0,0,0,0c0.1,0,0.1,0,0.2,0h0c0,0,0.1,0,0.1,0c0,0,0,0,0,0c0,0,0,0,0,0 c0,0,0.1,0,0.1,0c0,0,0,0,0,0c0,0,0,0,0,0c0,0,0.1,0,0.1,0c0,0,0,0,0,0c0,0,0,0,0,0c0,0,0.1,0,0.1,0l0,0l0,0c0,0,0.1,0,0.1,0 c0,0,0,0,0,0c0,0,0,0,0,0c0,0,0,0,0.1,0c0,0,0,0,0,0c0,0,0,0,0,0c0,0,0,0,0,0L209.1,332.7z"></path> <g> <linearGradient id="SVGID_00000034067870848848911820000000359643571035943579_" gradientUnits="userSpaceOnUse" x1="205.9553" y1="334.9389" x2="209.6539" y2="334.9389"> <stop offset="0" style="stop-color:#3F3F3F"></stop> <stop offset="1" style="stop-color:#727272"></stop> </linearGradient> <path style="fill:url(#SVGID_00000034067870848848911820000000359643571035943579_);" d="M209.7,333.9c0,1.2-0.8,2.6-1.8,3.2 c-0.5,0.3-1,0.3-1.3,0.1c0,0,0,0,0,0c0,0,0,0,0,0c0,0,0,0-0.1,0c0,0,0,0,0,0c0,0,0,0,0,0c0,0-0.1-0.1-0.1-0.1c0,0,0,0,0,0 c0,0,0,0,0,0l0,0c0,0,0,0,0,0c0,0,0,0,0,0c0,0,0,0,0,0c0,0,0,0,0,0c0,0,0-0.1-0.1-0.1c0,0,0,0,0,0c0,0,0,0,0,0c0,0,0,0,0,0 c0,0,0,0,0,0c0,0,0,0,0-0.1v0c0,0,0,0,0-0.1c0,0,0,0,0-0.1c0,0,0,0,0,0c0,0,0,0,0-0.1c0,0,0,0,0-0.1c0,0,0-0.1,0-0.1 c0,0,0,0,0,0c0,0,0,0,0,0c0,0,0,0,0,0c0,0,0,0,0-0.1c0,0,0,0,0-0.1c0,0,0-0.1,0-0.1c0-0.1,0-0.3,0-0.4c0,0,0,0,0,0 c0-0.2,0.1-0.4,0.2-0.6c0,0,0-0.1,0-0.1c0,0,0-0.1,0-0.1c0.1-0.2,0.1-0.3,0.2-0.5c0,0,0-0.1,0.1-0.1c0.3-0.5,0.7-0.9,1.2-1.2 c0,0,0.1,0,0.1-0.1c0,0,0,0,0.1,0c0,0,0.1,0,0.1-0.1c0,0,0,0,0,0c0,0,0,0,0,0c0,0,0,0,0,0c0,0,0,0,0,0c0,0,0,0,0,0 c0,0,0,0,0,0c0,0,0,0,0,0h0c0,0,0,0,0,0c0,0,0,0,0,0c0,0,0,0,0.1,0c0,0,0,0,0,0c0,0,0.1,0,0.1,0c0,0,0,0,0,0c0,0,0,0,0,0 c0,0,0.1,0,0.1,0c0,0,0,0,0,0c0,0,0.1,0,0.1,0c0,0,0,0,0,0c0,0,0,0,0,0c0,0,0,0,0,0l0,0c0,0,0,0,0,0c0,0,0,0,0,0 c0,0,0,0,0.1,0c0,0,0.1,0,0.1,0c0.3,0.2,0.5,0.5,0.5,1C209.6,333.7,209.7,333.8,209.7,333.9z"></path> </g> </g> </g> <g> <path class="st28" d="M192.4,337.8l88-50.7c1.7-1,1.7-3.5,0-4.5l-47.6-28.1c-2.2-1.3-5-1.3-7.2,0l-85.6,50.2"></path> <g> <g> <g class="st2"> <g> <polygon class="st15" points="232,306.8 274.3,281.6 274.3,237.4 232,262.6 "></polygon> </g> <g> <polygon class="st10" points="232,262.6 274.3,237.4 231.1,212.7 188.8,237.9 "></polygon> </g> <g> <polygon class="st11" points="188.8,237.9 188.8,282.1 232,306.8 232,262.6 "></polygon> </g> </g> </g> <g class="st12"> <polygon class="st13" points="248.8,252.8 257.5,247.6 214.3,222.9 205.6,228.1 "></polygon> </g> <polygon class="st14" points="257.5,260.5 248.8,265.7 248.8,252.8 257.5,247.6 "></polygon> <g> <polygon class="st14" points="190.9,255.3 199.7,260.5 199.7,247.6 190.9,242.4 "></polygon> <g> <path class="st13" d="M192.3,247.5l5.9,3.4c0.2,0.1,0.4,0.1,0.4-0.2l0,0c0-0.2-0.2-0.5-0.4-0.6l-5.9-3.4 c-0.2-0.1-0.4-0.1-0.4,0.2l0,0C192,247.2,192.1,247.4,192.3,247.5z"></path> <path class="st13" d="M192.3,250.1l5.9,3.4c0.2,0.1,0.4,0.1,0.4-0.2l0,0c0-0.2-0.2-0.5-0.4-0.6l-5.9-3.4 c-0.2-0.1-0.4-0.1-0.4,0.2v0C192,249.7,192.1,250,192.3,250.1z"></path> <path class="st13" d="M192.3,252.7l5.9,3.4c0.2,0.1,0.4,0.1,0.4-0.2l0,0c0-0.2-0.2-0.5-0.4-0.6l-5.9-3.4 c-0.2-0.1-0.4-0.1-0.4,0.2l0,0C192,252.3,192.1,252.6,192.3,252.7z"></path> </g> </g> </g> <g> <g> <g class="st2"> <g> <polygon class="st15" points="187,334 229.2,308.8 229.2,264.6 187,289.8 "></polygon> </g> <g> <polygon class="st10" points="187,289.8 229.2,264.6 186,239.9 143.7,265.1 "></polygon> </g> <g> <polygon class="st11" points="143.7,265.1 143.7,309.3 187,334 187,289.8 "></polygon> </g> </g> </g> <g class="st12"> <polygon class="st13" points="203.7,280 212.5,274.8 169.2,250.1 160.5,255.3 "></polygon> </g> <polygon class="st14" points="212.5,287.7 203.7,292.9 203.7,280 212.5,274.8 "></polygon> <g> <polygon class="st14" points="145.8,282.5 154.6,287.7 154.6,274.8 145.8,269.6 "></polygon> <g> <path class="st13" d="M147.3,274.7l5.9,3.4c0.2,0.1,0.4,0.1,0.4-0.2l0,0c0-0.2-0.2-0.5-0.4-0.6l-5.9-3.4 c-0.2-0.1-0.4-0.1-0.4,0.2l0,0C146.9,274.3,147.1,274.6,147.3,274.7z"></path> <path class="st13" d="M147.3,277.3l5.9,3.4c0.2,0.1,0.4,0.1,0.4-0.2l0,0c0-0.2-0.2-0.5-0.4-0.6l-5.9-3.4 c-0.2-0.1-0.4-0.1-0.4,0.2l0,0C146.9,276.9,147.1,277.2,147.3,277.3z"></path> <path class="st13" d="M147.3,279.9l5.9,3.4c0.2,0.1,0.4,0.1,0.4-0.2l0,0c0-0.2-0.2-0.5-0.4-0.6l-5.9-3.4 c-0.2-0.1-0.4-0.1-0.4,0.2l0,0C146.9,279.5,147.1,279.8,147.3,279.9z"></path> </g> </g> </g> <g> <g> <g class="st2"> <g> <polygon class="st15" points="187,289.7 229.2,264.5 229.2,220.3 187,245.5 "></polygon> </g> <g> <polygon class="st10" points="187,245.5 229.2,220.3 186,195.6 143.7,220.7 "></polygon> </g> <g> <polygon class="st11" points="143.7,220.7 143.7,265 187,289.7 187,245.5 "></polygon> </g> </g> </g> <g class="st12"> <polygon class="st13" points="203.7,235.7 212.5,230.5 169.2,205.8 160.5,211 "></polygon> </g> <polygon class="st14" points="212.5,243.4 203.7,248.6 203.7,235.7 212.5,230.5 "></polygon> <g> <polygon class="st14" points="145.8,238.2 154.6,243.4 154.6,230.5 145.8,225.3 "></polygon> <g> <path class="st13" d="M147.3,230.4l5.9,3.4c0.2,0.1,0.4,0.1,0.4-0.2l0,0c0-0.2-0.2-0.5-0.4-0.6l-5.9-3.4 c-0.2-0.1-0.4-0.1-0.4,0.2l0,0C146.9,230,147.1,230.3,147.3,230.4z"></path> <path class="st13" d="M147.3,233l5.9,3.4c0.2,0.1,0.4,0.1,0.4-0.2l0,0c0-0.2-0.2-0.5-0.4-0.6l-5.9-3.4 c-0.2-0.1-0.4-0.1-0.4,0.2l0,0C146.9,232.6,147.1,232.9,147.3,233z"></path> <path class="st13" d="M147.3,235.6l5.9,3.4c0.2,0.1,0.4,0.1,0.4-0.2l0,0c0-0.2-0.2-0.5-0.4-0.6l-5.9-3.4 c-0.2-0.1-0.4-0.1-0.4,0.2l0,0C146.9,235.2,147.1,235.4,147.3,235.6z"></path> </g> </g> </g> <g> <line class="st29" x1="141" y1="240.6" x2="193.5" y2="269.9"></line> <line class="st29" x1="141" y1="277.2" x2="193.5" y2="306.6"></line> <path class="st29" d="M193.5,335.1v-61.8c0-2.2-0.7-4.4-2-6.2l-18.7-26.6c-1-1.4-2.3-2.6-3.9-3.5L125.7,213 c-1.7-0.9-3.5,1-2.4,2.6l15.2,21.5c1.6,2.3,2.5,5,2.5,7.8v61.8c0,3.3,1.8,6.3,4.6,7.9l42.5,23.7 C190.5,339.7,193.5,337.9,193.5,335.1z"></path> <line class="st29" x1="154" y1="247.9" x2="154" y2="319.1"></line> <line class="st29" x1="174.5" y1="259.8" x2="174.5" y2="331"></line> </g> </g> </g> <g> <g> <g> <linearGradient id="SVGID_00000026149793259869289670000004373802727670912948_" gradientUnits="userSpaceOnUse" x1="-376.2715" y1="1341.9672" x2="-387.4195" y2="1296.9769" gradientTransform="matrix(0.9473 0.3204 -0.3204 0.9473 925.8293 -912.7913)"> <stop offset="0" style="stop-color:#303030"></stop> <stop offset="1" style="stop-color:#4C4A4B"></stop> </linearGradient> <path style="fill:url(#SVGID_00000026149793259869289670000004373802727670912948_);" d="M138.1,167.5L119.6,222 c-0.3,0.9-0.1,1.8,0.5,2.5l23.1,26c0.7,0.8,2,0.5,2.3-0.5l18.5-54.8c0.3-1,0.1-2-0.6-2.8l-22.7-25.7 C139.9,166,138.5,166.3,138.1,167.5z"></path> </g> <g> <linearGradient id="SVGID_00000044891713355305183890000014286686233314047141_" gradientUnits="userSpaceOnUse" x1="-401.0813" y1="1314.0831" x2="-367.5318" y2="1314.0831" gradientTransform="matrix(0.9473 0.3204 -0.3204 0.9473 925.8293 -912.7913)"> <stop offset="0" style="stop-color:#303030"></stop> <stop offset="1" style="stop-color:#4C4A4B"></stop> </linearGradient> <path style="fill:url(#SVGID_00000044891713355305183890000014286686233314047141_);" d="M137,167.6l-18.5,54.6 c-0.3,0.9-0.1,1.8,0.5,2.5l23.1,26c0.7,0.8,2,0.5,2.3-0.5l18.5-54.8c0.3-1,0.1-2-0.6-2.8l-22.7-25.7 C138.8,166.2,137.4,166.5,137,167.6z"></path> <path class="st13" d="M120.1,223.7c-0.3-0.3-0.3-0.7-0.2-1.1l18.5-54.6c0-0.1,0.1-0.1,0.1-0.1c0,0,0,0,0,0l22.7,25.7 c0.3,0.4,0.4,0.9,0.3,1.3l-18.5,54.5L120.1,223.7z"></path> </g> </g> <g> <g> <linearGradient id="SVGID_00000065041696565411305730000000875865134309018500_" gradientUnits="userSpaceOnUse" x1="-390.3754" y1="1279.507" x2="-386.8297" y2="1279.507" gradientTransform="matrix(0.9473 0.3204 -0.3204 0.9473 925.8293 -912.7913)"> <stop offset="0" style="stop-color:#A0570E"></stop> <stop offset="1" style="stop-color:#F79C45"></stop> </linearGradient> <path style="fill:url(#SVGID_00000065041696565411305730000000875865134309018500_);" d="M148.3,174.2 C148.2,174.2,148.2,174.2,148.3,174.2C148.2,174.2,148.2,174.2,148.3,174.2c-0.1-0.1-0.1-0.1-0.1-0.1c0,0,0,0,0,0c0,0,0,0,0,0 c0,0,0,0,0,0c0,0,0,0,0,0c0,0,0,0,0,0c0,0,0,0-0.1,0c0,0,0,0-0.1,0c0,0,0,0-0.1,0c0,0,0,0,0,0c0,0,0,0,0,0c0,0,0,0,0,0 c0,0,0,0-0.1,0c0,0,0,0-0.1,0c0,0-0.1,0-0.1,0c0,0,0,0,0,0c0,0,0,0,0,0c0,0-0.1,0-0.1,0c0,0-0.1,0-0.1,0l-1.2,0.2 c0.1,0,0.1,0,0.2,0c0,0,0,0,0,0c0.1,0,0.2,0,0.2,0.1c0,0,0,0,0,0c0.1,0,0.2,0.1,0.2,0.1c0,0,0,0,0,0c0.1,0.1,0.2,0.1,0.2,0.2 l1.1,1.3l1.2-0.2L148.3,174.2z"></path> <linearGradient id="SVGID_00000080176597101935757340000002132729955359991726_" gradientUnits="userSpaceOnUse" x1="-387.0938" y1="1281.3234" x2="-383.6967" y2="1281.3234" gradientTransform="matrix(0.9473 0.3204 -0.3204 0.9473 925.8293 -912.7913)"> <stop offset="0" style="stop-color:#A0570E"></stop> <stop offset="1" style="stop-color:#F79C45"></stop> </linearGradient> <path style="fill:url(#SVGID_00000080176597101935757340000002132729955359991726_);" d="M151.2,179.3c-0.1,0-0.1,0-0.2-0.1 c0,0,0,0,0,0c-0.1,0-0.1-0.1-0.2-0.1c0,0,0,0,0,0c-0.1-0.1-0.1-0.1-0.2-0.2c-0.1-0.1-0.1-0.2-0.2-0.3c0,0,0,0,0,0 c-0.1-0.1-0.1-0.2-0.2-0.3c0,0,0,0,0,0c0-0.1-0.1-0.2-0.1-0.3c0,0,0,0,0,0c0,0,0,0,0,0c0-0.1-0.1-0.2-0.1-0.3c0,0,0,0,0,0 c0-0.1,0-0.2-0.1-0.4c0,0,0,0,0,0c0-0.1,0-0.2,0-0.4c0,0,0,0,0,0c0-0.1,0-0.2,0-0.3c0,0,0,0,0,0c0-0.1,0-0.2,0.1-0.3 c0-0.1,0.1-0.2,0.1-0.3c0,0,0,0,0,0c0-0.1,0.1-0.1,0.1-0.2c0,0,0,0,0,0c0,0,0.1-0.1,0.1-0.1c0,0,0,0,0.1,0 c0.1,0,0.1-0.1,0.2-0.1l-1.2,0.2c-0.1,0-0.1,0-0.2,0.1c0,0,0,0-0.1,0c0,0,0,0-0.1,0c0,0-0.1,0-0.1,0.1c0,0,0,0,0,0c0,0,0,0,0,0 c0,0,0,0-0.1,0.1c0,0,0,0,0,0.1c0,0,0,0,0,0.1c0,0,0,0,0,0c0,0,0,0,0,0c0,0,0,0,0,0c0,0,0,0,0,0.1c0,0,0,0,0,0.1c0,0,0,0,0,0.1 c0,0,0,0,0,0.1c0,0,0,0,0,0c0,0,0,0,0,0.1c0,0,0,0,0,0.1c0,0,0,0,0,0.1c0,0,0,0,0,0.1c0,0,0,0,0,0.1c0,0,0,0,0,0c0,0,0,0,0,0 c0,0,0,0,0,0.1c0,0,0,0,0,0.1c0,0,0,0,0,0.1c0,0,0,0,0,0.1c0,0,0,0,0,0.1c0,0,0,0,0,0c0,0,0,0,0,0c0,0,0,0,0,0.1c0,0,0,0,0,0.1 c0,0,0,0,0,0.1c0,0,0,0,0,0.1c0,0,0,0,0,0.1c0,0,0,0,0,0c0,0,0,0,0,0c0,0,0,0,0,0.1c0,0,0,0.1,0,0.1c0,0,0,0.1,0,0.1 c0,0,0,0.1,0,0.1c0,0,0,0,0,0c0,0,0,0,0,0c0,0.1,0,0.1,0,0.2c0,0,0,0.1,0,0.1c0,0,0,0.1,0,0.1c0,0,0,0.1,0,0.1c0,0,0,0.1,0,0.1 c0,0,0,0,0,0.1c0,0,0,0,0,0c0,0,0,0,0,0c0,0,0,0,0,0.1c0,0,0,0,0,0.1c0,0,0,0,0,0.1c0,0,0,0,0,0.1c0,0,0,0,0,0c0,0,0,0,0,0 c0,0,0,0,0,0c0,0,0,0,0,0.1c0,0,0,0,0,0.1c0,0,0,0,0,0.1c0,0,0,0,0,0.1c0,0,0,0,0,0c0,0,0,0,0,0c0,0,0,0,0,0c0,0,0,0,0,0 c0,0,0,0,0,0c0,0,0,0,0,0c0,0,0,0,0,0c0,0,0,0,0,0c0,0,0,0,0,0c0,0,0,0,0,0c0,0,0,0,0,0c0,0,0,0,0.1,0c0,0,0,0,0,0c0,0,0,0,0,0 c0,0,0,0,0,0c0,0,0,0,0.1,0c0,0,0,0,0.1,0c0,0,0.1,0,0.1,0c0,0,0,0,0,0c0,0,0,0,0,0c0,0,0.1,0,0.1,0c0,0,0.1,0,0.1,0l1.2-0.2 C151.3,179.3,151.3,179.3,151.2,179.3C151.2,179.3,151.2,179.3,151.2,179.3z"></path> <linearGradient id="SVGID_00000031206523432558123950000009214225402673006749_" gradientUnits="userSpaceOnUse" x1="-387.272" y1="1283.5287" x2="-379.609" y2="1283.5287" gradientTransform="matrix(0.9473 0.3204 -0.3204 0.9473 925.8293 -912.7913)"> <stop offset="0" style="stop-color:#A0570E"></stop> <stop offset="1" style="stop-color:#F79C45"></stop> </linearGradient> <path style="fill:url(#SVGID_00000031206523432558123950000009214225402673006749_);" d="M154.4,183.3 C154.4,183.2,154.4,183.2,154.4,183.3c0-0.1,0-0.1,0-0.1c0,0,0,0,0-0.1c0,0,0,0,0-0.1c0,0,0,0,0,0c0,0,0,0,0,0c0,0,0,0,0-0.1 c0,0,0-0.1,0-0.1c0,0,0-0.1,0-0.1c0,0,0-0.1,0-0.1c0,0,0,0,0-0.1c0,0,0,0,0,0c0,0,0,0,0,0c0,0,0-0.1,0-0.1c0,0,0-0.1,0-0.1 c0,0,0,0,0-0.1c0,0,0,0,0-0.1c0,0,0,0,0-0.1c0,0,0,0,0,0c0,0,0,0,0,0c0,0,0-0.1,0-0.1c0,0,0-0.1,0-0.1c0,0,0-0.1,0-0.1 c0,0,0-0.1,0-0.1c0,0,0,0,0,0c0,0,0,0,0,0c0-0.1,0-0.1,0-0.2c0-0.1,0-0.1,0-0.1c0,0,0,0,0,0c0,0,0,0,0,0c0,0,0-0.1,0-0.1 c0,0,0-0.1,0-0.1c0,0,0-0.1,0-0.1c0,0,0-0.1,0-0.1c0,0,0,0,0,0c0,0,0,0,0,0c0,0,0,0,0-0.1c0,0,0-0.1,0-0.1c0,0,0-0.1,0-0.1 c0,0,0,0,0-0.1c0,0,0,0,0,0c0,0,0,0,0,0c0,0,0,0,0,0c0,0,0,0,0-0.1c0,0,0,0,0-0.1c0,0,0,0,0-0.1c0,0,0,0,0-0.1c0,0,0,0,0,0 l-1.1-1.3c0,0,0-0.1,0-0.1c0,0,0-0.1,0-0.1c0,0,0,0,0,0c0,0,0,0,0,0c0,0,0,0,0,0c0,0,0-0.1,0-0.1c0,0,0-0.1,0-0.1c0,0,0,0,0,0 c0,0,0,0,0,0c0,0,0-0.1,0-0.1c0,0,0-0.1,0-0.1c0,0,0,0,0,0c0,0,0,0,0,0c0,0,0,0,0-0.1c0,0,0-0.1,0-0.1c0,0,0-0.1,0-0.1 c0,0,0,0,0,0c0,0,0,0,0,0c0,0,0-0.1,0-0.1c0,0,0-0.1,0-0.1c0,0,0,0,0,0c0,0,0,0,0,0c0,0,0,0,0-0.1c0,0,0-0.1,0-0.1 c0,0,0-0.1,0-0.1c0,0,0,0,0,0c0,0,0,0,0,0c0,0,0-0.1,0-0.1c0,0,0-0.1,0-0.1c0,0,0,0,0,0c0,0,0,0,0,0c0,0,0-0.1,0-0.1 c0,0,0-0.1,0-0.1c0,0,0,0,0-0.1c0,0,0,0,0,0c0,0,0-0.1,0-0.1c0-0.1,0-0.1,0-0.2c0,0,0,0,0,0c0-0.1,0-0.2-0.1-0.2c0,0,0,0,0,0 l0,0c0-0.1,0-0.1-0.1-0.2c0,0,0-0.1,0-0.1c0,0,0,0,0,0c0,0,0,0,0,0c0,0,0-0.1,0-0.1c0,0,0-0.1-0.1-0.1c0,0,0,0,0,0c0,0,0,0,0,0 c0,0,0-0.1,0-0.1c0,0,0-0.1-0.1-0.1c0,0,0,0,0,0c0,0,0,0,0,0c0,0,0,0,0-0.1c0,0,0-0.1-0.1-0.1c0,0,0,0,0,0c0,0,0,0,0,0 c0,0,0,0,0,0c0,0,0-0.1-0.1-0.1c0,0,0,0,0-0.1c0,0,0,0,0,0c0,0,0,0,0,0c0,0,0-0.1-0.1-0.1c0,0,0-0.1-0.1-0.1c0,0,0,0,0,0 c0,0,0,0-0.1-0.1c0,0,0,0-0.1-0.1c0,0,0,0,0,0c0,0,0,0,0,0c0,0,0,0,0,0c0,0,0,0-0.1-0.1c0,0,0,0-0.1-0.1c0,0,0,0,0,0 c0,0,0,0,0,0c0,0,0,0,0,0c0,0-0.1,0-0.1-0.1c0,0,0,0,0,0c0,0,0,0,0,0c0,0,0,0,0,0c0,0-0.1,0-0.1,0c0,0,0,0-0.1,0c0,0,0,0,0,0 c0,0,0,0,0,0c0,0-0.1,0-0.1,0c0,0,0,0,0,0c0,0,0,0,0,0c0,0,0,0,0,0c0,0-0.1,0-0.1,0c0,0,0,0,0,0c0,0,0,0,0,0c0,0-0.1,0-0.1,0 c0,0,0,0,0,0c-0.1,0-0.1,0-0.2,0l-1.2,0.2c0.1,0,0.1,0,0.2,0c0,0,0.1,0,0.1,0c0,0,0,0,0,0c0.1,0,0.1,0,0.2,0c0,0,0,0,0,0 c0.1,0,0.1,0,0.2,0.1c0,0,0,0,0,0c0.1,0,0.1,0.1,0.2,0.1c0,0,0,0,0,0c0.1,0,0.1,0.1,0.2,0.1c0,0,0,0,0,0c0.1,0,0.1,0.1,0.2,0.1 c0,0,0,0,0,0c0.1,0.1,0.1,0.1,0.2,0.2c0.1,0.1,0.1,0.1,0.2,0.2c0,0,0,0,0,0c0,0.1,0.1,0.1,0.1,0.2c0,0,0,0,0,0 c0,0.1,0.1,0.1,0.1,0.2c0,0,0,0,0,0c0,0.1,0.1,0.2,0.1,0.2c0,0,0,0,0,0c0,0.1,0.1,0.2,0.1,0.3c0,0,0,0,0,0 c0.1,0.2,0.1,0.3,0.2,0.5c0,0.1,0,0.1,0,0.2c0,0,0,0.1,0,0.1c0,0,0,0,0,0.1c0,0.1,0,0.2,0,0.2c0,0,0,0,0,0c0,0.1,0,0.2,0,0.3 c0,0,0,0,0,0c0,0.1,0,0.2,0,0.3c0,0,0,0,0,0c0,0.1,0,0.2,0,0.3c0,0,0,0,0,0c0,0.1,0,0.2,0,0.3c0,0,0,0,0,0c0,0.1,0,0.2,0,0.3 c0,0,0,0,0,0c0,0.1,0,0.2-0.1,0.3c0,0,0,0,0,0c0,0.1,0,0.2-0.1,0.2l1.1,1.3c0.1,0.1,0.1,0.2,0.2,0.3c0,0,0,0,0,0 c0.1,0.1,0.1,0.2,0.2,0.3c0,0,0,0,0,0c0.1,0.1,0.1,0.2,0.1,0.4c0,0,0,0,0,0c0,0.1,0.1,0.2,0.1,0.4c0,0,0,0,0,0 c0,0.1,0,0.2,0.1,0.4c0,0,0,0,0,0c0,0.1,0,0.3,0,0.4c0,0,0,0,0,0c0,0.1,0,0.2,0,0.4c0,0,0,0,0,0c0,0.1,0,0.2-0.1,0.3l-0.9,2.6 l1.2-0.2L154.4,183.3C154.3,183.3,154.3,183.3,154.4,183.3z"></path> </g> <g> <linearGradient id="SVGID_00000179628729546539354120000016163172975919571368_" gradientUnits="userSpaceOnUse" x1="-390.8017" y1="1283.8409" x2="-380.6839" y2="1283.8409" gradientTransform="matrix(0.9473 0.3204 -0.3204 0.9473 925.8293 -912.7913)"> <stop offset="0" style="stop-color:#F9BF1E"></stop> <stop offset="1" style="stop-color:#F79C45"></stop> </linearGradient> <path style="fill:url(#SVGID_00000179628729546539354120000016163172975919571368_);" d="M152.6,180.8c0.6,0.7,0.9,1.9,0.6,2.8 l-0.9,2.6l-7.7-8.8l0.9-2.6c0.3-0.9,1-1,1.6-0.3l1.1,1.3c0.4-1.3,1.5-1.5,2.5-0.5c0.9,1,1.3,2.9,0.8,4.2L152.6,180.8z M149.3,179.1c0.6,0.7,1.3,0.5,1.5-0.3c0.3-0.8,0-2-0.5-2.7c-0.6-0.7-1.3-0.5-1.5,0.3C148.5,177.3,148.7,178.5,149.3,179.1"></path> </g> </g> <g> <g> <g> <path class="st36" d="M153.9,208.2l-13.7-15.4c-0.2-0.2-0.3-0.6-0.2-0.9l0,0c0.1-0.3,0.3-0.4,0.5-0.2l13.7,15.4 c0.2,0.2,0.3,0.6,0.2,0.9l0,0C154.3,208.4,154.1,208.4,153.9,208.2z"></path> <path class="st36" d="M154.4,199.6l-13.7-15.4c-0.2-0.2-0.3-0.6-0.2-0.9l0,0c0.1-0.3,0.3-0.4,0.5-0.2l13.7,15.4 c0.2,0.2,0.3,0.6,0.2,0.9l0,0C154.8,199.8,154.6,199.8,154.4,199.6z"></path> <path class="st36" d="M153.1,210.6l-13.7-15.4c-0.2-0.2-0.3-0.6-0.2-0.9l0,0c0.1-0.3,0.3-0.4,0.5-0.2l13.7,15.4 c0.2,0.2,0.3,0.6,0.2,0.9l0,0C153.5,210.8,153.3,210.8,153.1,210.6z"></path> <path class="st36" d="M148.3,208.6l-9.7-10.9c-0.2-0.2-0.3-0.6-0.2-0.9v0c0.1-0.3,0.3-0.4,0.5-0.2l9.7,10.9 c0.2,0.2,0.3,0.6,0.2,0.9l0,0C148.7,208.7,148.5,208.8,148.3,208.6z"></path> </g> <g> <linearGradient id="SVGID_00000000938511015793057940000005089037311126191007_" gradientUnits="userSpaceOnUse" x1="24.9688" y1="5310.0156" x2="29.9579" y2="5310.0156" gradientTransform="matrix(0.7649 0.8597 -0.3328 0.9848 1882.1605 -5062.1089)"> <stop offset="0" style="stop-color:#82FB7C"></stop> <stop offset="1" style="stop-color:#0BA2B3"></stop> </linearGradient> <path style="fill:url(#SVGID_00000000938511015793057940000005089037311126191007_);" d="M136.4,195.3l-2.7-3 c-0.3-0.3-0.4-1-0.3-1.5l1.4-4.3c0.2-0.5,0.6-0.6,0.9-0.3l2.7,3c0.3,0.3,0.4,1,0.3,1.5l-1.4,4.3 C137.1,195.5,136.7,195.6,136.4,195.3z"></path> <polygon class="st13" points="135.3,188.5 135.3,191.5 137.6,191.8 137.6,190.7 135.9,190.6 135.9,188.4 "></polygon> </g> </g> <g> <g> <path class="st36" d="M151,216.9l-13.7-15.4c-0.2-0.2-0.3-0.6-0.2-0.9l0,0c0.1-0.3,0.3-0.4,0.5-0.2l13.7,15.4 c0.2,0.2,0.3,0.6,0.2,0.9l0,0C151.4,217,151.2,217.1,151,216.9z"></path> <path class="st36" d="M150.2,219.3l-13.7-15.4c-0.2-0.2-0.3-0.6-0.2-0.9l0,0c0.1-0.3,0.3-0.4,0.5-0.2l13.7,15.4 c0.2,0.2,0.3,0.6,0.2,0.9l0,0C150.6,219.4,150.4,219.5,150.2,219.3z"></path> <path class="st36" d="M145.4,217.2l-9.7-10.9c-0.2-0.2-0.3-0.6-0.2-0.9l0,0c0.1-0.3,0.3-0.4,0.5-0.2l9.7,10.9 c0.2,0.2,0.3,0.6,0.2,0.9l0,0C145.8,217.4,145.5,217.4,145.4,217.2z"></path> </g> <g> <linearGradient id="SVGID_00000170980781824882377180000016434041149440486030_" gradientUnits="userSpaceOnUse" x1="24.9684" y1="5318.7925" x2="29.9575" y2="5318.7925" gradientTransform="matrix(0.7649 0.8597 -0.3328 0.9848 1882.1605 -5062.1089)"> <stop offset="0" style="stop-color:#82FB7C"></stop> <stop offset="1" style="stop-color:#0BA2B3"></stop> </linearGradient> <path style="fill:url(#SVGID_00000170980781824882377180000016434041149440486030_);" d="M133.5,203.9l-2.7-3 c-0.3-0.3-0.4-1-0.3-1.5l1.4-4.3c0.2-0.5,0.6-0.6,0.9-0.3l2.7,3c0.3,0.3,0.4,1,0.3,1.5l-1.4,4.3 C134.2,204.2,133.8,204.3,133.5,203.9z"></path> <polygon class="st13" points="132.4,197.2 132.4,200.1 134.7,200.5 134.7,199.4 133,199.2 132.9,197.1 "></polygon> </g> </g> <g> <g> <path class="st36" d="M148.1,225.5l-13.7-15.4c-0.2-0.2-0.3-0.6-0.2-0.9l0,0c0.1-0.3,0.3-0.4,0.5-0.2l13.7,15.4 c0.2,0.2,0.3,0.6,0.2,0.9l0,0C148.5,225.6,148.2,225.7,148.1,225.5z"></path> <path class="st36" d="M147.2,227.9l-13.7-15.4c-0.2-0.2-0.3-0.6-0.2-0.9l0,0c0.1-0.3,0.3-0.4,0.5-0.2l13.7,15.4 c0.2,0.2,0.3,0.6,0.2,0.9l0,0C147.7,228.1,147.4,228.1,147.2,227.9z"></path> <path class="st36" d="M142.4,225.9l-9.7-10.9c-0.2-0.2-0.3-0.6-0.2-0.9l0,0c0.1-0.3,0.3-0.4,0.5-0.2l9.7,10.9 c0.2,0.2,0.3,0.6,0.2,0.9l0,0C142.9,226,142.6,226.1,142.4,225.9z"></path> </g> <g> <linearGradient id="SVGID_00000053510178644501618760000003316876710550602638_" gradientUnits="userSpaceOnUse" x1="24.968" y1="5327.5698" x2="29.957" y2="5327.5698" gradientTransform="matrix(0.7649 0.8597 -0.3328 0.9848 1882.1605 -5062.1089)"> <stop offset="0" style="stop-color:#82FB7C"></stop> <stop offset="1" style="stop-color:#0BA2B3"></stop> </linearGradient> <path style="fill:url(#SVGID_00000053510178644501618760000003316876710550602638_);" d="M130.6,212.6l-2.7-3 c-0.3-0.3-0.4-1-0.3-1.5l1.4-4.3c0.2-0.5,0.6-0.6,0.9-0.3l2.7,3c0.3,0.3,0.4,1,0.3,1.5l-1.4,4.3 C131.2,212.8,130.9,212.9,130.6,212.6z"></path> <polygon class="st13" points="129.4,205.8 129.4,208.8 131.8,209.1 131.7,208 130.1,207.8 130,205.7 "></polygon> </g> </g> <g> <g> <path class="st36" d="M145.1,234.1l-13.7-15.4c-0.2-0.2-0.3-0.6-0.2-0.9l0,0c0.1-0.3,0.3-0.4,0.5-0.2l13.7,15.4 c0.2,0.2,0.3,0.6,0.2,0.9l0,0C145.6,234.3,145.3,234.4,145.1,234.1z"></path> <path class="st36" d="M144.3,236.6l-13.7-15.4c-0.2-0.2-0.3-0.6-0.2-0.9l0,0c0.1-0.3,0.3-0.4,0.5-0.2l13.7,15.4 c0.2,0.2,0.3,0.6,0.2,0.9l0,0C144.7,236.7,144.5,236.8,144.3,236.6z"></path> <path class="st36" d="M139.5,234.5l-9.7-10.9c-0.2-0.2-0.3-0.6-0.2-0.9l0,0c0.1-0.3,0.3-0.4,0.5-0.2l9.7,10.9 c0.2,0.2,0.3,0.6,0.2,0.9l0,0C139.9,234.6,139.7,234.7,139.5,234.5z"></path> </g> <g> <linearGradient id="SVGID_00000139271717995559238000000009374981846454492315_" gradientUnits="userSpaceOnUse" x1="24.9676" y1="5336.3467" x2="29.9566" y2="5336.3467" gradientTransform="matrix(0.7649 0.8597 -0.3328 0.9848 1882.1605 -5062.1089)"> <stop offset="0" style="stop-color:#82FB7C"></stop> <stop offset="1" style="stop-color:#0BA2B3"></stop> </linearGradient> <path style="fill:url(#SVGID_00000139271717995559238000000009374981846454492315_);" d="M127.6,221.2l-2.7-3 c-0.3-0.3-0.4-1-0.3-1.5l1.4-4.3c0.2-0.5,0.6-0.6,0.9-0.3l2.7,3c0.3,0.3,0.4,1,0.3,1.5l-1.4,4.3 C128.3,221.5,127.9,221.6,127.6,221.2z"></path> <polygon class="st13" points="126.5,214.5 126.5,217.4 128.9,217.8 128.8,216.7 127.2,216.5 127.1,214.4 "></polygon> </g> </g> </g> </g> <g> <linearGradient id="SVGID_00000168099944418808875520000012678250558614068359_" gradientUnits="userSpaceOnUse" x1="10301.085" y1="378.2391" x2="10277.9893" y2="379.6758" gradientTransform="matrix(-1 0 0 1 10370.5996 0)"> <stop offset="0" style="stop-color:#303030"></stop> <stop offset="1" style="stop-color:#4C4A4B"></stop> </linearGradient> <path style="fill:url(#SVGID_00000168099944418808875520000012678250558614068359_);" d="M65.7,375.8c0,0-2.4,5.5-0.8,7.4 c1.6,1.9,7.8,4.6,10.9,3.9c3.1-0.7,8.8-7.2,13.6-9.3c4.8-2.1,5.5-6.7,0-7s-13.9,1.9-13.9,1.9L65.7,375.8z"></path> <linearGradient id="SVGID_00000181056166648540443410000014333826674063024313_" gradientUnits="userSpaceOnUse" x1="10267.1768" y1="393.6248" x2="10237.8643" y2="395.4481" gradientTransform="matrix(-1 0 0 1 10370.5996 0)"> <stop offset="0" style="stop-color:#303030"></stop> <stop offset="1" style="stop-color:#4C4A4B"></stop> </linearGradient> <path style="fill:url(#SVGID_00000181056166648540443410000014333826674063024313_);" d="M114.2,385.3c0,0,8.1,0.6,13.2,0 c5.1-0.6,9,3.1,3.7,7.5c-5.2,4.3-12,5.2-16.9,8.5c-4.9,3.3-9.9,3.1-15.1,0c-5.2-3.1,0.9-15.3,0.9-15.3L114.2,385.3z"></path> <linearGradient id="SVGID_00000068666331465006091680000008601990569226434225_" gradientUnits="userSpaceOnUse" x1="10274.1826" y1="327.0129" x2="10305.6465" y2="327.0129" gradientTransform="matrix(-1 0 0 1 10370.5996 0)"> <stop offset="0" style="stop-color:#303030"></stop> <stop offset="1" style="stop-color:#4C4A4B"></stop> </linearGradient> <path style="fill:url(#SVGID_00000068666331465006091680000008601990569226434225_);" d="M71.1,276.2c0,0-5.3,8.4-4.7,14.8 c0.6,6.4,4.2,17.2,4.7,17.8c0.5,0.6,0,24,0,24s-5.3,6.8-5.9,17.4c-0.6,10.6,0,23.6,0,23.6s-1,2.8,4.2,3.8c5.2,1,8.4-1.2,8.4-1.2 s3.8-28,8.9-37.6c5.1-9.6,9.7-48.6,9.7-48.6L71.1,276.2z"></path> <linearGradient id="SVGID_00000009589400767615457220000010458700088163442868_" gradientUnits="userSpaceOnUse" x1="10314.7441" y1="210.1515" x2="10299.7539" y2="213.4494" gradientTransform="matrix(-1 0 0 1 10370.5996 0)"> <stop offset="0" style="stop-color:#FFFFFF"></stop> <stop offset="1" style="stop-color:#CCCCCC"></stop> </linearGradient> <path style="fill:url(#SVGID_00000009589400767615457220000010458700088163442868_);" d="M63.8,185.8c0,0-5.4,4.7-6.9,16.6 c-1.5,11.9-5.4,33.6,1.7,34.5c7.2,0.9,15.1-1.4,15.1-1.4L63.8,185.8z"></path> <linearGradient id="SVGID_00000060749437201167052270000012022946203676646529_" gradientUnits="userSpaceOnUse" x1="10269.8506" y1="196.5383" x2="10264.1895" y2="159.46" gradientTransform="matrix(-1 0 0 1 10370.5996 0)"> <stop offset="0" style="stop-color:#DE8B8B"></stop> <stop offset="1" style="stop-color:#FFC5C5"></stop> </linearGradient> <path style="fill:url(#SVGID_00000060749437201167052270000012022946203676646529_);" d="M116.7,164c0,0,1.4,6.5,0.8,7.6 c-0.5,1.1-1.7,2.2-1.7,2.2s1.8,1.9,1.8,3.7c0,1.8-1,8.9-2.4,9.8s-4.6,0.3-6.1,1.4c-1.6,1.1-2.2,12.7-2.2,12.7l-20.2-5.5l5-18.7 c0,0-1.8-15.1,6.7-19.8C106.9,152.8,116.7,164,116.7,164z"></path> <linearGradient id="SVGID_00000000919392175585136500000006051133392733878718_" gradientUnits="userSpaceOnUse" x1="10271.0361" y1="179.9076" x2="10266.7656" y2="151.9358" gradientTransform="matrix(-1 0 0 1 10370.5996 0)"> <stop offset="0" style="stop-color:#303030"></stop> <stop offset="1" style="stop-color:#4C4A4B"></stop> </linearGradient> <path style="fill:url(#SVGID_00000000919392175585136500000006051133392733878718_);" d="M119.1,161.2c0.8,3.2-2.1,4.7-3.3,5.5 c-3.8,2.4-1.7,9.1-3.2,9.6c-1.5,0.6-4-5.9-6.4-4.5c-2.5,1.4,2.6,7,0,9.3c-2.6,2.3-13.8,1.6-16.1-0.6c-2.3-2.2-5.5-8.8-5.2-15.4 c0.3-6.5,3-7.8,3-7.8s-1.8-6.4,5.5-7.8S116.8,151.2,119.1,161.2z"></path> <linearGradient id="SVGID_00000127014607898088388550000016220202305720034732_" gradientUnits="userSpaceOnUse" x1="10299.3594" y1="239.2306" x2="10245.2891" y2="242.5938" gradientTransform="matrix(-1 0 0 1 10370.5996 0)"> <stop offset="0" style="stop-color:#FE5F00"></stop> <stop offset="1" style="stop-color:#DD4A00"></stop> </linearGradient> <path style="fill:url(#SVGID_00000127014607898088388550000016220202305720034732_);" d="M113.6,196.7c0,0-23.6-14.1-27.5-12.1 c-4,2-4,4.5-4,4.5s-14.1-6.2-18.3-3.2c-4.2,3,4.9,38.3,6.7,60.1c1.7,21.8,1,27.3,1,27.3s-4.8,19.3,19,22.9s33-9.4,33-9.4 s3.8-71.7,0-75.7c-3.8-4-3.9-5.9-7.8-8.7C111.8,199.6,113.6,196.7,113.6,196.7z"></path> <linearGradient id="SVGID_00000046316430074546061540000011179234847784032649_" gradientUnits="userSpaceOnUse" x1="10229.7109" y1="231.8152" x2="10239.9043" y2="244.5571" gradientTransform="matrix(-1 0 0 1 10370.5996 0)"> <stop offset="0" style="stop-color:#FFFFFF"></stop> <stop offset="1" style="stop-color:#CCCCCC"></stop> </linearGradient> <path style="fill:url(#SVGID_00000046316430074546061540000011179234847784032649_);" d="M121.4,212.1c-10.1,2.5-8.7,11.4-4,21.2 c4.7,9.8,17.3,31.4,20.5,30.7c3.2-0.7,31.7-20,31.7-20s1.7-4.9-3.5-8.9c-5.2-4-7.8-2.2-7.8-2.2l-16.3,10.9 C142.1,243.7,131,209.6,121.4,212.1z"></path> <linearGradient id="SVGID_00000141449623846657045120000002249669481718339004_" gradientUnits="userSpaceOnUse" x1="10247.667" y1="340.4444" x2="10283.8799" y2="340.4444" gradientTransform="matrix(-1 0 0 1 10370.5996 0)"> <stop offset="0" style="stop-color:#303030"></stop> <stop offset="1" style="stop-color:#4C4A4B"></stop> </linearGradient> <path style="fill:url(#SVGID_00000141449623846657045120000002249669481718339004_);" d="M87.1,295.4c0,0-2.2,9.4,4.8,15.4 c7,6,7,6,7,6l1.8,29.2c0,0-2,5.3-2.8,18c-0.8,12.7,1,25.3,1,25.3s2.5,4,8.6,4c6,0,8.2-4.8,8.2-4.8s-0.3-27.6,4.1-42.4 c4.3-14.8,3.1-58.6,3.1-58.6S111.3,299,87.1,295.4z"></path> <linearGradient id="SVGID_00000083089673458384279830000014733607009395458192_" gradientUnits="userSpaceOnUse" x1="177.3251" y1="235.0992" x2="162.911" y2="235.9958"> <stop offset="0" style="stop-color:#DE8B8B"></stop> <stop offset="1" style="stop-color:#FFC5C5"></stop> </linearGradient> <path style="fill:url(#SVGID_00000083089673458384279830000014733607009395458192_);" d="M162.5,232.9c0,0,1.3-2.9,3.6-3.3 c2.3-0.4,4.3-0.1,4.4,0.9c0.1,1,2.2-1.4,4.5-0.5c2.4,0.9,8.5,7.5,3.6,9c-4.9,1.5-8.8,2.8-8.8,2.8S168,235.3,162.5,232.9z"></path> </g> <g> <linearGradient id="SVGID_00000140011857504128059010000014613836536518033058_" gradientUnits="userSpaceOnUse" x1="357.2451" y1="538.756" x2="345.3764" y2="552.9006" gradientTransform="matrix(1.0199 0.1156 0.1144 0.9934 -335.0466 -349.0219)"> <stop offset="0" style="stop-color:#FFFFFF"></stop> <stop offset="1" style="stop-color:#CCCCCC"></stop> </linearGradient> <path style="fill:url(#SVGID_00000140011857504128059010000014613836536518033058_);" d="M85.6,244.2c0.8,0.4,1.6,0.7,2.5,0.8 c0.4,0.1,0.7,0.1,1.1,0.1c2.4,0,4.3-1.4,5.3-3.7c0.6-1.5,0.7-3.4,0.2-5.3c-0.5-1.9-1.4-3.7-2.7-5.3l-8.2-9.4 c-0.9-1-2.1-1.2-2.7-0.4c-0.7,0.7-0.5,2.2,0.4,3.1l8.2,9.4c1.3,1.5,1.8,3.7,1.2,5.2c-0.5,1.2-1.4,1.9-2.7,1.9 c-1.2,0-2.5-0.6-3.5-1.8l-9.4-10.8l0.7,6.3l6.3,7.2C83.3,242.7,84.4,243.6,85.6,244.2"></path> <linearGradient id="SVGID_00000166659357666146158560000005838454931138847676_" gradientUnits="userSpaceOnUse" x1="356.4854" y1="530.0248" x2="344.6147" y2="544.1717" gradientTransform="matrix(1.0199 0.1156 0.1144 0.9934 -335.0466 -349.0219)"> <stop offset="0" style="stop-color:#FFFFFF"></stop> <stop offset="1" style="stop-color:#CCCCCC"></stop> </linearGradient> <path style="fill:url(#SVGID_00000166659357666146158560000005838454931138847676_);" d="M87.3,217.4c-1.7-1.9-3.7-3.1-5.8-3.4 c-2.1-0.3-3.9,0.3-5.2,1.8c-1.3,1.5-1.8,3.6-1.6,5.9c0.3,2.4,1.3,4.7,3,6.6l8.1,9.3c0.4,0.5,1,0.8,1.4,0.9c0.5,0.1,1-0.1,1.3-0.4 c0.7-0.7,0.5-2.2-0.4-3.1l-8.1-9.3c-0.8-1-1.4-2.1-1.5-3.3c-0.1-1.2,0.1-2.2,0.8-3c1.3-1.5,3.8-1.1,5.5,0.8l9.5,10.8l-0.7-6.3 L87.3,217.4z"></path> </g> <g> <path class="st53" d="M124.8,160.9c-3.5,3.9-3.9,5.1-20.7,12.7s-19.8,2.1-19.8,2.1S128.4,157.2,124.8,160.9z"></path> <path class="st54" d="M118.8,158.1c-0.4,0-0.4,0.4-0.4,0.7c-0.5,0.5-1.1,0.9-1.6,1.4c-0.4,0.4-0.9,0.7-1.2,1.1 c-0.4,0.2-0.7,0.5-1.1,0.7c0,0.2,0,0.2,0,0.2c-0.2,0-0.2,0.2-0.4,0c-0.4-0.4-0.7-0.5-1.1-0.9c-0.2-0.2-0.4-0.2-0.5,0 c-0.4,0.4-0.9,0.5-1.2,0.9c-0.5,0.2-0.9,0.5-1.4,0.9c-0.2,0.2-0.4,0.4-0.2,0.7c0.2,0.4,0.4,0.7,0.5,1.1c0,0.2,0,0.2-0.2,0.4 c-0.5,0.4-1.1,0.7-1.6,1.1c-0.4,0.2-0.9,0.5-1.2,0.7s-0.9,0.5-1.2,0.7c-0.2,0-0.4,0-0.4-0.2c-0.4-0.4-0.5-0.9-0.9-1.2 c-0.2,0-0.2,0-0.4,0c-1.2,0.5-2.3,0.9-3.5,1.4c-1.2,0.5-2.5,1.1-3.7,1.6c-0.2,0.2-0.2,0.4-0.2,0.5c0.2,0.5,0.2,0.9,0.4,1.4 c0,0.2,0,0.2-0.2,0.4c-0.7,0.2-1.4,0.5-2.1,0.7c-0.5,0.2-1.2,0.4-1.8,0.5c-0.2,0-0.2,0-0.2,0c-0.4-0.4-0.7-0.9-0.9-1.4 c-0.2-0.2-0.4-0.2-0.5-0.2c-0.5,0.2-1.1,0.4-1.6,0.5c-0.4,0-0.5,0.2-0.7,0.2c-0.4,0.2-0.7,0.2-1.1,0.4c-0.2,0-0.2,0.2-0.2,0.4 c0.2,0.4,0.2,0.7,0.2,1.1c0,0,0,0.2,0,0.4s0,0.4-0.2,0.4c-0.2,0.2-0.5,0.2-0.7,0.2c-0.5,0.2-1.1,0.2-1.6,0.2 c-0.4,0-0.7,0-0.9-0.2c-0.2-0.4-0.4-0.7-0.5-1.1c-0.4-1.2-0.7-2.5-1.1-3.7c-0.2-0.9-0.4-1.8-0.5-2.7c-0.2-1.8-0.2-3.5,0-5.3 c0.4-1.9,0.9-3.9,1.8-5.7c0.9-1.8,2.1-3.2,3.4-4.6c1.1-1.2,2.3-2.1,3.7-3c1.1-0.7,2.1-1.2,3.4-1.6c1.4-0.5,2.8-0.9,4.2-1.2 c1.2-0.2,2.3-0.5,3.5-0.5c0.7,0,1.4,0,2.1,0.4c2.5,1.1,4.6,2.5,6.7,4.1c0.9,0.5,1.8,1.2,2.5,2.1c1.1,1.1,1.8,2.3,2.7,3.4 C117.6,155.9,118.3,157,118.8,158.1C118.8,157.9,118.8,158.1,118.8,158.1z M87.7,160.4c-0.4,1.1-0.4,2.3-0.4,3.4 c0,0.7,0,1.4,0.2,2.1c0.2,0.5,0.2,1.1,0.4,1.6c0.2,0.5,0.4,1.2,0.5,1.8c0,0.2,0.2,0.4,0.2,0.5s0.2,0.2,0.2,0.2 c0.5-0.2,1.1-0.2,1.6-0.4c0.4-0.2,0.7-0.2,1.1-0.4s0.7-0.2,1.1-0.4c0.7-0.2,1.2-0.4,1.9-0.5c0.4,0,0.7-0.2,1.1-0.4 c0.4-0.2,0.9-0.4,1.2-0.5c0.4-0.2,0.9-0.4,1.4-0.5c1.1-0.5,2.1-0.9,3.2-1.4c0.5-0.2,1.1-0.4,1.6-0.7c0.7-0.4,1.4-0.7,1.9-1.1 c0.7-0.5,1.2-0.9,1.9-1.2c0.7-0.4,1.6-0.9,2.3-1.4c0.5-0.4,1.1-0.9,1.6-1.2c0.2-0.2,0.2-0.2,0.2-0.2c-0.2,0-0.2,0-0.2,0 c-0.5,0.5-1.2,0.9-1.9,1.2c-0.7,0.4-1.2,0.7-1.9,1.1c-0.5,0.2-0.9,0.4-1.2,0.5c-1.4,0.7-2.8,1.2-4.2,1.8 c-0.5,0.4-1.2,0.5-1.8,0.7c-0.7,0.4-1.2,0.5-1.9,0.7c-0.7,0.4-1.4,0.5-2.1,0.7c-0.5,0.2-0.9,0.4-1.4,0.4c-0.4,0-0.7,0.2-1.2,0.2 c-0.7,0.2-1.4,0.2-1.9,0c-0.5-0.2-1.1-0.4-1.4-0.7c-0.5-0.5-0.9-1.1-1.2-1.6c-0.4-0.5-0.5-1.2-0.7-1.9c-0.2-0.7-0.2-1.4-0.4-2.3 c0,0.2,0.2,0,0,0C87.2,160.4,87.2,160.5,87.7,160.4z M106.8,147.5c0.2-0.2,0.2-0.2,0-0.4c-0.4-0.2-0.5-0.2-0.7-0.4 c-0.4-0.2-0.9-0.4-1.2-0.5c-0.5-0.2-0.9-0.2-1.2,0c-0.4,0-0.5,0.2-0.9,0.4l0,0c0,0-0.2,0-0.2,0.2s0.2,0.2,0.2,0.2 c1.1,0.2,1.9,0.5,2.8,0.7c0.2,0.2,0.5,0.2,0.9,0C106.6,147.6,106.6,147.6,106.8,147.5z"></path> <path class="st55" d="M118.8,158.1c-0.2,0.2-0.4,0.4-0.5,0.5c-0.5,0.5-1.1,0.9-1.6,1.4c-0.4,0.4-0.9,0.7-1.2,1.1 c-0.4,0.2-0.7,0.5-1.1,0.7c0,0.2,0,0.2,0,0.2c-0.2,0-0.2,0.2-0.4,0c-0.4-0.4-0.7-0.5-1.1-0.9c-0.2-0.2-0.4-0.2-0.5,0 c-0.4,0.4-0.9,0.5-1.2,0.9c-0.5,0.2-0.9,0.5-1.4,0.9c-0.2,0.2-0.4,0.4-0.2,0.7c0.2,0.4,0.4,0.7,0.5,1.1c0,0.2,0,0.2-0.2,0.4 c-0.5,0.4-1.1,0.7-1.6,1.1c-0.4,0.2-0.9,0.5-1.2,0.7c-0.4,0.2-0.9,0.5-1.2,0.7c-0.2,0-0.4,0-0.4-0.2c-0.4-0.4-0.5-0.9-0.9-1.2 c-0.2,0-0.2,0-0.4,0c-1.2,0.5-2.3,0.9-3.5,1.4c-1.2,0.5-2.5,1.1-3.7,1.6c-0.2,0.2-0.2,0.4-0.2,0.5c0.2,0.5,0.2,0.9,0.4,1.4 c0,0.2,0,0.2-0.2,0.4c-0.7,0.2-1.4,0.5-2.1,0.7c-0.5,0.2-1.2,0.4-1.8,0.5c-0.2,0-0.2,0-0.2,0c-0.4-0.4-0.7-0.9-0.9-1.4 c-0.2-0.2-0.4-0.2-0.5-0.2c-0.5,0.2-1.1,0.4-1.6,0.5c-0.4,0-0.5,0.2-0.7,0.2c-0.4,0.2-0.7,0.2-1.1,0.4c-0.2,0-0.2,0.2-0.2,0.4 c0.2,0.4,0.2,0.7,0.2,1.1c0,0,0,0.2,0,0.4c0,0.2,0,0.4-0.2,0.4c-0.2,0.2-0.5,0.2-0.7,0.2c0.2,0.4,0.7,0.7,1.1,0.7 c0.5,0.2,1.2,0.2,1.8,0c0.5-0.2,1.1-0.2,1.6-0.4c0.5-0.2,1.2-0.4,1.8-0.5c0.5-0.4,1.2-0.5,1.8-0.7c0.5-0.4,1.1-0.5,1.6-0.7 c0.5-0.2,0.9-0.4,1.4-0.5c1.4-0.5,2.7-1.1,3.9-1.6c0.7-0.4,1.4-0.5,1.9-0.9c0.4-0.2,0.9-0.4,1.2-0.5c0.9-0.4,1.6-0.7,2.3-1.1 c1.1-0.5,2.3-1.1,3.4-1.4c0.4-0.2,0.7-0.4,1.2-0.5c0.4-0.2,0.5-0.2,0.9-0.4c0.4-0.2,0.9-0.4,1.4-0.5c0.2-0.2,0.5-0.2,0.9-0.4 c0.5-0.2,1.1-0.4,1.6-0.5c0.4,0,0.9-0.2,1.2-0.4c0.7-0.4,1.2-0.5,1.9-0.7c0.5-0.2,0.9-0.5,1.4-0.7c0.2,0,0.2-0.2,0.4-0.2 c0.4-0.2,0.9-0.5,1.2-0.7c0.4-0.2,0.7-0.4,0.9-0.7c0.2-0.2,0.2-0.4,0.4-0.4l0,0c0-0.2,0.2-0.4,0.4-0.5l0,0l0.2-0.2l0,0 c0-0.2,0-0.2,0-0.2c0-0.2,0-0.5-0.2-0.7c0-0.2,0-0.2,0-0.2l0,0l0,0l0,0l0,0c-0.2,0-0.2-0.2-0.4-0.2l0,0c-0.2,0-0.4,0-0.5-0.2l0,0 c-0.2,0-0.2,0-0.2,0l0,0c-0.2,0-0.2,0-0.2,0l0,0c0,0-0.2,0.2-0.2,0l0,0l0,0l0,0c-0.2-0.2-0.4-0.2-0.7-0.2l0,0l0,0l0,0l0,0 c-0.2,0-0.2,0-0.2,0l0,0c-0.2,0-0.2,0-0.2,0l0,0c-0.2,0-0.2,0-0.2,0l0,0c0,0.2-0.2,0.2-0.4,0l0,0l0,0c-0.2,0.2-0.2,0.2-0.4,0l0,0 l0,0h-0.2h-0.2l0,0c0,0.2-0.2,0.2-0.2,0l0,0c-0.2,0-0.5,0-0.7-0.2l0,0l0,0l0,0c-0.2,0-0.2,0-0.2,0l0,0c-0.2,0-0.2,0-0.2,0l0,0 c-0.2,0-0.4,0-0.5-0.2l0,0l0,0c-0.2,0-0.2,0.2-0.4,0c0.2,0,0,0,0,0C118.8,158.1,118.8,158.1,118.8,158.1z"></path> <path class="st53" d="M124.8,161.1c-0.2,0-0.2,0.2-0.2,0.2c-0.4,0.4-0.7,0.5-0.9,0c-0.4,0.2-0.7,0.5-1.2,0.7 c-0.2,0-0.2,0.2-0.4,0.2c-0.4,0.4-0.9,0.5-1.4,0.7c-0.7,0.4-1.2,0.5-1.9,0.7c-0.4,0-0.7,0.2-1.2,0.4s-1.1,0.4-1.6,0.5 c-0.2,0.2-0.5,0.2-0.9,0.4c-0.4,0.2-0.9,0.4-1.4,0.5c-0.4,0.2-0.5,0.4-0.9,0.4c-0.4,0.2-0.9,0.4-1.2,0.5 c-1.1,0.4-2.3,0.9-3.4,1.4c-0.9,0.4-1.6,0.7-2.3,1.1c-0.4,0.2-0.9,0.4-1.2,0.5c-0.7,0.4-1.4,0.5-1.9,0.9 c-1.2,0.5-2.7,1.1-3.9,1.6c-0.5,0.2-0.9,0.4-1.4,0.5c-0.5,0.4-1.1,0.5-1.6,0.7c-0.5,0.4-1.1,0.5-1.8,0.7 c-0.5,0.2-1.2,0.4-1.8,0.5s-1.1,0.4-1.6,0.4s-1.2,0.2-1.8,0c-0.5,0-0.9-0.2-1.1-0.7c-0.5,0.2-1.1,0.2-1.6,0.2 c-0.4,0-0.7,0-0.9-0.2c-0.4,0.4-0.7,0.7-0.9,1.1c-0.2,0.2-0.2,0.4-0.2,0.5c-0.2,0.4,0,0.7,0.4,0.9s0.7,0.2,1.2,0.2 c0.2,0,0.5,0,0.9,0H87h0.2c0.9-0.2,1.6-0.4,2.3-0.5c0.2,0,0.4-0.2,0.5-0.2c0.2,0,0.4-0.2,0.5-0.2c0.5-0.2,1.2-0.5,1.9-0.7 c0.9-0.2,1.6-0.5,2.3-0.7c0.4,0,0.5-0.2,0.7-0.2c1.1-0.5,2.3-0.9,3.4-1.4c0.9-0.4,1.9-0.9,3-1.2c0.5-0.4,1.1-0.5,1.6-0.7h0.2 c1.6-0.7,3-1.2,4.6-1.9c1.2-0.5,2.3-0.9,3.5-1.4c1.6-0.5,3-1.2,4.6-1.8c1.8-0.7,3.5-1.4,5.3-2.1c1.2-0.5,2.1-1.1,3-2.1 C124.7,161.1,124.8,161.1,124.8,161.1z"></path> <path class="st53" d="M87.4,160.5C87.2,160.4,87.2,160.5,87.4,160.5c-0.4,1.1-0.5,2.3,0.2,3.2c0,0.7,0,1.4,0.2,2.1 c0.2,0.5,0.2,1.1,0.4,1.6c0.2,0.5,0.4,1.2,0.5,1.8c0,0.2,0.2,0.4,0.2,0.5s0.2,0.2,0.2,0.2c0.5-0.2,1.1-0.2,1.6-0.4 c0.4-0.2,0.7-0.2,1.1-0.4s0.7-0.2,1.1-0.4c0.7-0.2,1.2-0.4,1.9-0.5c0.4,0,0.7-0.2,1.1-0.4c0.4-0.2,0.9-0.4,1.2-0.5 c0.4-0.2,0.9-0.4,1.4-0.5c1.1-0.5,2.1-0.9,3.2-1.4c0.5-0.2,1.1-0.4,1.6-0.7c0.7-0.4,1.4-0.7,1.9-1.1c0.7-0.5,1.2-0.9,1.9-1.2 c0.7-0.4,1.6-0.9,2.3-1.4c0.5-0.4,1.1-0.9,1.6-1.2c0.2-0.2,0.2-0.2,0.2-0.2c-0.2,0-0.2,0-0.2,0c-0.5,0.5-1.2,0.9-1.9,1.2 c-0.7,0.4-1.2,0.7-1.9,1.1c-0.5,0.2-0.9,0.4-1.2,0.5c-1.4,0.7-2.8,1.2-4.2,1.8c-0.5,0.4-1.2,0.5-1.8,0.7 c-0.7,0.4-1.2,0.5-1.9,0.7c-0.7,0.4-1.4,0.5-2.1,0.7c-0.5,0.2-0.9,0.4-1.4,0.4c-0.4,0-0.7,0.2-1.2,0.2c-0.7,0.2-1.4,0.2-1.9,0 c-0.5-0.2-1.1-0.4-1.4-0.7c-0.5-0.5-0.9-1.1-1.2-1.6c-0.4-0.5-0.5-1.2-0.7-1.9S87.5,161.2,87.4,160.5 C87.2,160.5,87.4,160.4,87.4,160.5z"></path> <path class="st53" d="M106.6,147.8l0.2-0.2c0.2-0.2,0.2-0.2,0-0.4c-0.4-0.2-0.5-0.2-0.7-0.4c-0.4-0.2-0.9-0.4-1.2-0.5 c-0.5-0.2-0.9-0.2-1.2,0c-0.4,0-0.5,0.2-0.9,0.4l0,0c0,0-0.2,0-0.2,0.2s0.2,0.2,0.2,0.2c1.1,0.2,1.9,0.5,2.8,0.7 C105.9,147.8,106.3,147.8,106.6,147.8z"></path> </g> </g> </g> </svg> 